<?xml version="1.0" encoding="UTF-8"?>
<svg version="1.1" xmlns="http://www.w3.org/2000/svg" width="304" height="304">
<path d="M0 0 C0.76166473 -0.00067474 1.52332947 -0.00134949 2.30807495 -0.00204468 C13.68085486 0.01397185 24.5549096 0.47968474 35.625 3.25 C36.31190918 3.41628906 36.99881836 3.58257812 37.70654297 3.75390625 C65.04477707 10.5118126 88.37474704 24.951682 108.625 44.25 C109.34429687 44.91644531 110.06359375 45.58289062 110.8046875 46.26953125 C134.96348606 69.31256201 151.3538977 105.71805659 152.78613281 138.99365234 C152.83215091 143.20430861 152.87165814 147.41408777 152.875 151.625 C152.87567474 152.38666473 152.87634949 153.14832947 152.87704468 153.93307495 C152.86102815 165.30585486 152.39531526 176.1799096 149.625 187.25 C149.45871094 187.93690918 149.29242188 188.62381836 149.12109375 189.33154297 C142.3631874 216.66977707 127.923318 239.99974704 108.625 260.25 C107.62533203 261.32894531 107.62533203 261.32894531 106.60546875 262.4296875 C83.56243799 286.58848606 47.15694341 302.9788977 13.88134766 304.41113281 C9.67069139 304.45715091 5.46091223 304.49665814 1.25 304.5 C0.48833527 304.50067474 -0.27332947 304.50134949 -1.05807495 304.50204468 C-12.43085486 304.48602815 -23.3049096 304.02031526 -34.375 301.25 C-35.06190918 301.08371094 -35.74881836 300.91742188 -36.45654297 300.74609375 C-63.79477707 293.9881874 -87.12474704 279.548318 -107.375 260.25 C-108.09429687 259.58355469 -108.81359375 258.91710937 -109.5546875 258.23046875 C-133.71348606 235.18743799 -150.1038977 198.78194341 -151.53613281 165.50634766 C-151.58215091 161.29569139 -151.62165814 157.08591223 -151.625 152.875 C-151.62567474 152.11333527 -151.62634949 151.35167053 -151.62704468 150.56692505 C-151.61102815 139.19414514 -151.14531526 128.3200904 -148.375 117.25 C-148.20871094 116.56309082 -148.04242188 115.87618164 -147.87109375 115.16845703 C-141.1131874 87.83022293 -126.673318 64.50025296 -107.375 44.25 C-106.70855469 43.53070313 -106.04210937 42.81140625 -105.35546875 42.0703125 C-78.35223879 13.75955772 -38.35185976 0.03043676 0 0 Z " fill="#E899E4" transform="translate(151.375,-0.24999999999999997)"/>
<path d="M0 0 C3.6699841 2.74447001 6.88477097 5.64374745 10 9 C10.59425781 9.62519531 11.18851563 10.25039062 11.80078125 10.89453125 C16.17520201 15.99299406 19.23234103 21.8491563 22.375 27.75 C22.81650391 28.57870605 23.25800781 29.40741211 23.71289062 30.26123047 C24.12474609 31.05674316 24.53660156 31.85225586 24.9609375 32.671875 C25.33009277 33.3844043 25.69924805 34.09693359 26.07958984 34.83105469 C30.09181344 44.28585428 28.82570951 56.82415979 25.71875 66.33203125 C24.64730077 70.30920422 24.58586657 74.26761371 24.50390625 78.37109375 C23.85532086 81.75479894 22.73781374 82.95750404 20 85 C18.68 85 17.36 85 16 85 C16.0721875 85.66 16.144375 86.32 16.21875 87 C16.94102191 94.70423371 17.16883079 102.39005176 17.25 110.125 C17.2819043 111.62546875 17.2819043 111.62546875 17.31445312 113.15625 C17.36503548 124.16875212 15.03362777 133.39733219 8 142 C3.78735724 146.21264276 -1.66880789 148.47415364 -7 151 C-7 153.97 -7 156.94 -7 160 C-3.04 160.99 -3.04 160.99 1 162 C-0.1519162 166.60766481 -1.41773954 167.98764461 -5 171 C-7.8125 171.8125 -7.8125 171.8125 -10 172 C-10 172.99 -10 173.98 -10 175 C-9.01 175 -8.02 175 -7 175 C-7.25 176.875 -7.25 176.875 -8 179 C-10.85735741 180.80165235 -13.147232 181.29527688 -16.5 181.3125 C-17.2528125 181.32925781 -18.005625 181.34601563 -18.78125 181.36328125 C-21 181 -21 181 -22.84765625 179.4765625 C-26.66556116 176.85738273 -31.13218728 178.01340607 -35.58984375 178.28515625 C-39.67913051 177.94321131 -41.02986582 176.72219254 -44 174 C-44.99 173.67 -45.98 173.34 -47 173 C-47.33 173.99 -47.66 174.98 -48 176 C-52.71190102 176.37695208 -56.07370593 176.46314703 -60.375 174.3125 C-62.96241816 172.03310781 -64.46597317 170.06805366 -66 167 C-66.433125 167.78375 -66.86625 168.5675 -67.3125 169.375 C-69 172 -69 172 -72 174 C-75.68464577 174.48060597 -77.49840456 174.28499741 -80.75 172.4375 C-83.50095333 169.45730056 -84.16937768 166.92657825 -85 163 C-85.680625 163.99 -86.36125 164.98 -87.0625 166 C-89.35204447 168.751356 -89.78470606 168.96600622 -93.5625 169.5625 C-97.02227442 168.9963551 -98.59212107 168.50419409 -101 166 C-101 165.34 -101 164.68 -101 164 C-101.99 164.5775 -102.98 165.155 -104 165.75 C-104.64582031 166.1109375 -105.29164062 166.471875 -105.95703125 166.84375 C-107.26415754 167.58353849 -108.55562586 168.35217399 -109.82421875 169.15625 C-115.74074469 172.62926313 -121.2761848 172.40342891 -128 172 C-128 171.01 -128 170.02 -128 169 C-126.515 168.01 -126.515 168.01 -125 167 C-125.969375 166.731875 -126.93875 166.46375 -127.9375 166.1875 C-128.948125 165.795625 -129.95875 165.40375 -131 165 C-131.33 164.01 -131.66 163.02 -132 162 C-131.67 161.34 -131.34 160.68 -131 160 C-132.155 160.103125 -133.31 160.20625 -134.5 160.3125 C-140.80607487 160.32368098 -144.8443231 156.73505702 -149.5625 152.9375 C-150.036875 152.298125 -150.51125 151.65875 -151 151 C-150.58984375 148.87890625 -150.58984375 148.87890625 -150 147 C-148.783125 146.87625 -147.56625 146.7525 -146.3125 146.625 C-143.51625633 145.90483067 -142.25958003 145.30027429 -140.35546875 143.09765625 C-136.5552403 136.3404777 -135.90909757 129.61683661 -137 122 C-137.81971511 119.72382679 -138.73462032 117.81995362 -140.02734375 115.78125 C-142.75917191 110.77838398 -142.30189468 104.62427878 -142.51757812 99.05859375 C-142.75092605 94.4356632 -143.69296344 90.46355568 -145 86 C-146.28948635 74.21469456 -143.77801563 62.76680487 -136.76171875 53.1171875 C-132.29215188 47.74577898 -127.24669238 43.02689488 -121.9375 38.5 C-114.46640992 32.01621374 -108.95360491 24.61394786 -103.57519531 16.38671875 C-96.89688429 6.20139057 -88.56883757 -3.31836609 -77 -8 C-72.96650063 -8.52898352 -71.02661857 -8.63176527 -67.5625 -6.5 C-67.046875 -6.005 -66.53125 -5.51 -66 -5 C-63.84498167 -6.00054423 -61.99577083 -7.0032991 -60.1171875 -8.46875 C-42.30005341 -21.35494292 -15.8921197 -10.40358429 0 0 Z " fill="#04194D" transform="translate(214,70)"/>
<path d="M0 0 C3.6699841 2.74447001 6.88477097 5.64374745 10 9 C10.59425781 9.62519531 11.18851563 10.25039062 11.80078125 10.89453125 C16.17520201 15.99299406 19.23234103 21.8491563 22.375 27.75 C22.81650391 28.57870605 23.25800781 29.40741211 23.71289062 30.26123047 C24.12474609 31.05674316 24.53660156 31.85225586 24.9609375 32.671875 C25.33009277 33.3844043 25.69924805 34.09693359 26.07958984 34.83105469 C30.09181344 44.28585428 28.82570951 56.82415979 25.71875 66.33203125 C24.64730077 70.30920422 24.58586657 74.26761371 24.50390625 78.37109375 C23.85532086 81.75479894 22.73781374 82.95750404 20 85 C18.68 85 17.36 85 16 85 C16.0721875 85.66 16.144375 86.32 16.21875 87 C16.94102191 94.70423371 17.16883079 102.39005176 17.25 110.125 C17.2819043 111.62546875 17.2819043 111.62546875 17.31445312 113.15625 C17.36497658 124.15592852 15.04401923 133.41454145 8 142 C3.90869049 145.98640414 -1.17302063 149 -7 149 C-6.125 144.25 -6.125 144.25 -5 142 C-4.34 142 -3.68 142 -3 142 C-2.62875 140.824375 -2.62875 140.824375 -2.25 139.625 C-1.2424736 136.70317344 -0.15889016 133.86263167 1 131 C2.46657124 127.36616238 3.83516835 123.74410173 5 120 C5.35578125 119.05125 5.7115625 118.1025 6.078125 117.125 C7.65422084 111.58542258 6.95058547 105.86896653 6.625 100.1875 C6.56828125 99.04345703 6.5115625 97.89941406 6.453125 96.72070312 C6.34863192 94.617158 6.23929416 92.51384391 6.12353516 90.41088867 C6.04826564 88.94194308 6 87.47087275 6 86 C2.30420733 91.37826002 -0.04278247 96.44655147 -1.875 102.6875 C-5.49619575 114.1463523 -10.0393627 125.55881802 -20 133 C-22.7421875 134.20703125 -22.7421875 134.20703125 -25 135 C-25 135.66 -25 136.32 -25 137 C-26.175625 137.433125 -26.175625 137.433125 -27.375 137.875 C-30.09671632 138.84912254 -30.09671632 138.84912254 -32 141 C-40.26963205 144.53491292 -47.76749925 146.58843773 -56.5 143.9375 C-63.42201636 140.52456138 -69.11493946 135.07466056 -74.42578125 129.578125 C-76.47283346 127.52599325 -78.69170362 125.74870938 -81 124 C-80.67 123.34 -80.34 122.68 -80 122 C-78.515 122.99 -78.515 122.99 -77 124 C-77.495 121.525 -77.495 121.525 -78 119 C-76.1875 119.1875 -76.1875 119.1875 -74 120 C-72.97388051 121.65071396 -71.97691857 123.31970006 -71 125 C-69.35704805 126.36244796 -67.69175663 127.69864875 -66 129 C-65.34 129.99 -64.68 130.98 -64 132 C-63.38125 132.309375 -62.7625 132.61875 -62.125 132.9375 C-60 134 -60 134 -58.3125 136.0625 C-54.72766364 139.06601154 -51.50277279 139.35408436 -47 139 C-43.99804227 138.41333582 -41.06729553 137.64549421 -38.125 136.8125 C-37.37516846 136.60439697 -36.62533691 136.39629395 -35.8527832 136.18188477 C-31.71786535 134.9124458 -29.11278717 133.8845339 -27 130 C-28.94603274 129.40929986 -28.94603274 129.40929986 -31 129 C-31.33 129.33 -31.66 129.66 -32 130 C-33.66617115 130.04063832 -35.33388095 130.042721 -37 130 C-37 129.34 -37 128.68 -37 128 C-37.84304687 127.80470703 -37.84304687 127.80470703 -38.703125 127.60546875 C-46.51301082 125.54674034 -52.82597879 122.17376079 -59 117 C-58.34 116.67 -57.68 116.34 -57 116 C-53.96161767 117.37363991 -51.07385931 118.97015138 -48.140625 120.5546875 C-45.02493559 121.98852467 -42.39040541 122.60411434 -39 123 C-39 122.34 -39 121.68 -39 121 C-37.865625 120.731875 -36.73125 120.46375 -35.5625 120.1875 C-34.386875 119.795625 -33.21125 119.40375 -32 119 C-31.67 118.01 -31.34 117.02 -31 116 C-31.99 116.66 -32.98 117.32 -34 118 C-35.32 118 -36.64 118 -38 118 C-38.66 116.68 -39.32 115.36 -40 114 C-40.66 114.66 -41.32 115.32 -42 116 C-42.33 115.67 -42.66 115.34 -43 115 C-43 113.35 -43 111.7 -43 110 C-38.38 110.66 -33.76 111.32 -29 112 C-29.04125 110.55625 -29.0825 109.1125 -29.125 107.625 C-29.13212045 102.17785788 -28.66088306 96.84451089 -28.0625 91.4375 C-27.93222412 90.24084717 -27.93222412 90.24084717 -27.79931641 89.02001953 C-27.13023383 83.26046766 -27.13023383 83.26046766 -26 81 C-25.278125 80.896875 -24.55625 80.79375 -23.8125 80.6875 C-20.56306502 79.89319367 -19.0553938 78.31468493 -16.5859375 76.15234375 C-13.10312892 73.62173161 -9.43718124 73.78536971 -5.33203125 74.3984375 C-2.87129689 74.87739567 -0.43551663 75.40704726 2 76 C5.07993515 66.67543675 5.07993515 66.67543675 3.4375 57.4375 C2.37956765 55.69520167 2.37956765 55.69520167 1 54 C0.41605469 53.15566406 -0.16789063 52.31132813 -0.76953125 51.44140625 C-3.41028056 48.55091882 -5.43698116 47.74415093 -9.125 46.5 C-15.00848817 44.40587709 -20.48760058 41.92418479 -26 39 C-26 38.34 -26 37.68 -26 37 C-26.69351563 36.88785156 -27.38703125 36.77570313 -28.1015625 36.66015625 C-31.38051025 35.91333392 -34.27208236 34.73099655 -37.375 33.4375 C-44.02290705 30.66216214 -44.02290705 30.66216214 -51 31 C-55.85814142 35.12268718 -59.08598392 40.40508912 -62 46 C-62.66 46 -63.32 46 -64 46 C-64.37125 47.299375 -64.37125 47.299375 -64.75 48.625 C-66.39799898 53.07459725 -68.64341652 56.64341652 -72 60 C-72.268125 60.763125 -72.53625 61.52625 -72.8125 62.3125 C-74.28637923 65.64812141 -76.42831372 67.42831372 -79 70 C-80.47890077 72.2777925 -81.72710275 74.59563852 -83 77 C-83.66 77 -84.32 77 -85 77 C-85 77.99 -85 78.98 -85 80 C-85.66 80 -86.32 80 -87 80 C-87.268125 80.53625 -87.53625 81.0725 -87.8125 81.625 C-88.67132874 83.34265748 -89.59726795 85.02730088 -90.5625 86.6875 C-92.22709967 90.52331663 -92.30520432 93.21611388 -92.1875 97.375 C-92.16042969 98.62023437 -92.13335937 99.86546875 -92.10546875 101.1484375 C-92.05326172 102.55996094 -92.05326172 102.55996094 -92 104 C-94.03770729 101.39593854 -95.71804689 98.83642657 -97.1875 95.875 C-97.70376953 94.85019531 -97.70376953 94.85019531 -98.23046875 93.8046875 C-99 92 -99 92 -99 90 C-99.66 90 -100.32 90 -101 90 C-101.33 89.34 -101.66 88.68 -102 88 C-108.22391622 93.78884635 -113.58086331 99.14296345 -117 107 C-117.30550781 107.69480469 -117.61101562 108.38960938 -117.92578125 109.10546875 C-120.74259304 116.43451934 -122.45743324 125.26136691 -119.5625 132.6875 C-118.7890625 133.8321875 -118.7890625 133.8321875 -118 135 C-118 135.66 -118 136.32 -118 137 C-119.8125 137.6875 -119.8125 137.6875 -122 138 C-125.17988234 135.83768001 -126.3246455 132.35070901 -128 129 C-128.66 128.67 -129.32 128.34 -130 128 C-130 127.01 -130 126.02 -130 125 C-130.99 124.67 -131.98 124.34 -133 124 C-134.09765625 121.96875 -134.09765625 121.96875 -135.0625 119.5 C-136.22702003 116.03943188 -136.22702003 116.03943188 -139 114 C-139 112.68 -139 111.36 -139 110 C-139.99 109.67 -140.98 109.34 -142 109 C-142.04898438 107.92621094 -142.09796875 106.85242188 -142.1484375 105.74609375 C-142.22353398 104.30987358 -142.29907876 102.87367681 -142.375 101.4375 C-142.4059375 100.73302734 -142.436875 100.02855469 -142.46875 99.30273438 C-142.72878939 94.60035542 -143.66847761 90.53880053 -145 86 C-146.28948635 74.21469456 -143.77801563 62.76680487 -136.76171875 53.1171875 C-132.29215188 47.74577898 -127.24669238 43.02689488 -121.9375 38.5 C-114.46640992 32.01621374 -108.95360491 24.61394786 -103.57519531 16.38671875 C-96.89688429 6.20139057 -88.56883757 -3.31836609 -77 -8 C-72.96650063 -8.52898352 -71.02661857 -8.63176527 -67.5625 -6.5 C-67.046875 -6.005 -66.53125 -5.51 -66 -5 C-63.84498167 -6.00054423 -61.99577083 -7.0032991 -60.1171875 -8.46875 C-42.30005341 -21.35494292 -15.8921197 -10.40358429 0 0 Z M-8 91 C-8.6496875 92.7015625 -8.6496875 92.7015625 -9.3125 94.4375 C-9.869375 95.613125 -10.42625 96.78875 -11 98 C-14.09478879 99.03159626 -15.52631393 98.97482862 -18.6875 98.5625 C-19.49574219 98.46066406 -20.30398437 98.35882813 -21.13671875 98.25390625 C-21.75160156 98.17011719 -22.36648437 98.08632812 -23 98 C-22.95359375 98.72445312 -22.9071875 99.44890625 -22.859375 100.1953125 C-22.6253088 106.4649429 -22.83691197 110.00429437 -27 115 C-27.515625 115.86625 -28.03125 116.7325 -28.5625 117.625 C-29.92057342 119.86877348 -31.39096388 121.93123927 -33 124 C-30.69 124.33 -28.38 124.66 -26 125 C-26.33 126.32 -26.66 127.64 -27 129 C-22.71193127 128.52354792 -20.73352513 127.34097516 -18 124 C-18 123.34 -18 122.68 -18 122 C-17.34 122 -16.68 122 -16 122 C-15.32591692 120.73308493 -14.66099503 119.46129251 -14 118.1875 C-13.62875 117.47980469 -13.2575 116.77210938 -12.875 116.04296875 C-11.80314642 113.91079271 -11.80314642 113.91079271 -12 111 C-11.67619874 109.66431979 -11.34342449 108.33076989 -11 107 C-11 106.34 -11 105.68 -11 105 C-10.68521554 103.66216607 -10.35412344 102.32796291 -10 101 C-9.21625 101.04125 -8.4325 101.0825 -7.625 101.125 C-4.83883881 101.28728734 -4.83883881 101.28728734 -3 99 C-2.62057612 96.04049371 -2.54577821 94.59874691 -4.375 92.1875 C-5.93368783 90.8033278 -5.93368783 90.8033278 -8 91 Z " fill="#2E2F39" transform="translate(214,70)"/>
<path d="M0 0 C7.14557938 -1.27032522 13.52429434 2.2949584 20 5 C21.66573611 5.66898836 23.33205355 6.33654175 25 7 C25 7.66 25 8.32 25 9 C26.2375 9.37125 26.2375 9.37125 27.5 9.75 C30.8191141 10.93539789 33.74534187 12.37841524 36.85546875 14.0078125 C39.08567285 15.03963735 41.25684166 15.66772411 43.625 16.3125 C48.61255158 17.92055542 51.3150794 20.54508397 54 25 C55.39470018 27.93282698 56.6169523 30.76204991 57 34 C56.09765625 36.07421875 56.09765625 36.07421875 55 38 C54.64080679 39.99551782 54.30503431 41.99548879 54 44 C53.505 44.99 53.505 44.99 53 46 C51.98679687 45.88140625 50.97359375 45.7628125 49.9296875 45.640625 C48.57823944 45.50923422 47.22666958 45.37909204 45.875 45.25 C45.20984375 45.16878906 44.5446875 45.08757812 43.859375 45.00390625 C37.49919153 44.44271359 34.49980459 46.92873334 29.8125 50.8125 C29.214375 51.204375 28.61625 51.59625 28 52 C26.515 51.505 26.515 51.505 25 51 C24.01 61.23 23.02 71.46 22 82 C11.875 82 11.875 82 8 80 C8.33 81.65 8.66 83.3 9 85 C9.99 84.34 10.98 83.68 12 83 C12.33 84.65 12.66 86.3 13 88 C16.465 87.01 16.465 87.01 20 86 C19.125 89.875 19.125 89.875 18 91 C16.00041636 91.04080783 13.99954746 91.04254356 12 91 C12 91.66 12 92.32 12 93 C6.90229172 93.3718693 3.68534545 92.23363859 -0.875 90 C-2.02742188 89.443125 -3.17984375 88.88625 -4.3671875 88.3125 C-5.23601562 87.879375 -6.10484375 87.44625 -7 87 C-0.04925875 92.03676902 6.88280166 95.29426722 15 98 C14.67 98.66 14.34 99.32 14 100 C15.0725 99.62875 16.145 99.2575 17.25 98.875 C21 98 21 98 23.4375 98.875 C24.2109375 99.431875 24.2109375 99.431875 25 100 C21.91080785 104.64923419 19.34945017 105.95830239 14 107.375 C12.1746875 107.88160156 12.1746875 107.88160156 10.3125 108.3984375 C7.19620693 108.96436808 5.91867376 108.82425509 3 108 C2.34 108.66 1.68 109.32 1 110 C-2.98101792 109.91153294 -4.61470259 109.35710491 -7.5625 106.625 C-8.366875 105.75875 -9.17125 104.8925 -10 104 C-10.928125 103.443125 -11.85625 102.88625 -12.8125 102.3125 C-13.534375 101.879375 -14.25625 101.44625 -15 101 C-15 100.34 -15 99.68 -15 99 C-15.53625 98.773125 -16.0725 98.54625 -16.625 98.3125 C-19.84930329 96.53064818 -22.29649295 94.51917702 -25 92 C-25 91.01 -25 90.02 -25 89 C-25.66 89 -26.32 89 -27 89 C-26.01 92.465 -26.01 92.465 -25 96 C-28.96421152 93.11000663 -31.54992068 90.14868874 -34.25 86.0625 C-34.93578125 85.04285156 -35.6215625 84.02320313 -36.328125 82.97265625 C-37.90325997 80.17200738 -38.44325394 78.1122105 -39 75 C-39.66 74.67 -40.32 74.34 -41 74 C-42.45529669 66.8690462 -43.33749374 59.87331774 -39.1875 53.5625 C-37.54296875 51.44140625 -37.54296875 51.44140625 -36 50 C-35.34 50 -34.68 50 -34 50 C-34 49.01 -34 48.02 -34 47 C-33.34 47 -32.68 47 -32 47 C-31.731875 46.443125 -31.46375 45.88625 -31.1875 45.3125 C-29.40066054 41.83286527 -27.76565557 38.74245389 -24.9375 36 C-22.76386435 33.75624708 -22.12612812 31.8857033 -21 29 C-20.38125 28.236875 -19.7625 27.47375 -19.125 26.6875 C-16.49538917 23.36181572 -14.7852357 19.82686163 -13 16 C-12.34 16 -11.68 16 -11 16 C-10.814375 15.154375 -10.62875 14.30875 -10.4375 13.4375 C-8.78725358 9.49125856 -6.75650337 7.47050628 -3.65625 4.61328125 C-1.78328893 2.90133387 -1.78328893 2.90133387 0 0 Z M43 61 C46.875 62.875 46.875 62.875 48 64 C48.1875 66.4375 48.1875 66.4375 48 69 C46 71 46 71 43.375 71.125 C42.59125 71.08375 41.8075 71.0425 41 71 C40.6550855 72.33038449 40.32483418 73.66457061 40 75 C39.690625 76.2684375 39.690625 76.2684375 39.375 77.5625 C38.78987986 80.13098073 38.78987986 80.13098073 40 83 C39.2578125 84.75390625 39.2578125 84.75390625 38.125 86.5625 C37.57199219 87.46162109 37.57199219 87.46162109 37.0078125 88.37890625 C36.67523438 88.91386719 36.34265625 89.44882813 36 90 C35.67 90.66 35.34 91.32 35 92 C34.34 92 33.68 92 33 92 C32.7525 92.598125 32.505 93.19625 32.25 93.8125 C30.80517427 96.34094503 29.51719455 97.55070617 27 99 C26.01 98.67 25.02 98.34 24 98 C24.33 97.01 24.66 96.02 25 95 C22.69 94.67 20.38 94.34 18 94 C18.763125 93.13375 19.52625 92.2675 20.3125 91.375 C22.75615068 88.45504452 24.38635238 85.45781634 26 82 C26.66 81.01 27.32 80.02 28 79 C28.24187651 76.25481679 28.24187651 76.25481679 28.125 73.3125 C28.09792969 71.82169922 28.09792969 71.82169922 28.0703125 70.30078125 C28.04710937 69.54152344 28.02390625 68.78226563 28 68 C28.75925781 68.11859375 29.51851562 68.2371875 30.30078125 68.359375 C31.79158203 68.55273438 31.79158203 68.55273438 33.3125 68.75 C34.29863281 68.88921875 35.28476563 69.0284375 36.30078125 69.171875 C39.11402367 69.29407982 39.11402367 69.29407982 40.8125 67.15625 C41.95771274 65.07678477 42.58423468 63.32828578 43 61 Z " fill="#D0A185" transform="translate(163,100)"/>
<path d="M0 0 C1.59124942 5.48734981 1.49583367 11.20275139 1.75 16.875 C1.81832031 18.04675781 1.88664062 19.21851563 1.95703125 20.42578125 C2.22620291 26.5063001 2.37524108 30.71486641 -1 36 C-1.50849888 37.73608708 -1.96860912 39.4872136 -2.375 41.25 C-3.83353255 46.93593706 -6.18449451 51.86977062 -9 57 C-9.66 57 -10.32 57 -11 57 C-11.66 59.31 -12.32 61.62 -13 64 C-12.34 64.33 -11.68 64.66 -11 65 C-11.99 65.495 -11.99 65.495 -13 66 C-13 68.97 -13 71.94 -13 75 C-10.36 75.66 -7.72 76.32 -5 77 C-6.1519162 81.60766481 -7.41773954 82.98764461 -11 86 C-13.8125 86.8125 -13.8125 86.8125 -16 87 C-16 87.99 -16 88.98 -16 90 C-15.01 90 -14.02 90 -13 90 C-13.25 91.875 -13.25 91.875 -14 94 C-16.85735741 95.80165235 -19.147232 96.29527688 -22.5 96.3125 C-23.2528125 96.32925781 -24.005625 96.34601563 -24.78125 96.36328125 C-27 96 -27 96 -28.84765625 94.4765625 C-32.66556116 91.85738273 -37.13218728 93.01340607 -41.58984375 93.28515625 C-45.67913051 92.94321131 -47.02986582 91.72219254 -50 89 C-50.99 88.67 -51.98 88.34 -53 88 C-53.495 89.485 -53.495 89.485 -54 91 C-58.71190102 91.37695208 -62.07370593 91.46314703 -66.375 89.3125 C-68.96241816 87.03310781 -70.46597317 85.06805366 -72 82 C-72.6496875 83.175625 -72.6496875 83.175625 -73.3125 84.375 C-75 87 -75 87 -78 89 C-81.68464577 89.48060597 -83.49840456 89.28499741 -86.75 87.4375 C-89.50095333 84.45730056 -90.16937768 81.92657825 -91 78 C-91.99 78.99 -92.98 79.98 -94 81 C-94.66 80.67 -95.32 80.34 -96 80 C-95.67 76.7 -95.34 73.4 -95 70 C-94.01 71.32 -93.02 72.64 -92 74 C-91.34 72.02 -90.68 70.04 -90 68 C-88.47265625 69.22265625 -88.47265625 69.22265625 -87 71 C-86.99609375 73.12109375 -86.99609375 73.12109375 -87.4375 75.4375 C-88.11160378 79.02664717 -88.02614656 80.89597076 -86 84 C-82.57067929 85.71466036 -78.78283935 85.05404056 -75 85 C-75 82.03 -75 79.06 -75 76 C-74.67 76.99 -74.34 77.98 -74 79 C-73.01 79 -72.02 79 -71 79 C-71 78.01 -71 77.02 -71 76 C-67.33827525 76.62678171 -64.1181005 77.64451846 -60.6875 79.0625 C-59.36298828 79.60583984 -59.36298828 79.60583984 -58.01171875 80.16015625 C-57.01591797 80.57587891 -57.01591797 80.57587891 -56 81 C-55.76539063 80.37609375 -55.53078125 79.7521875 -55.2890625 79.109375 C-53.63176925 76.39744059 -52.3858401 76.11024003 -49.375 75.25 C-48.55773437 75.00765625 -47.74046875 74.7653125 -46.8984375 74.515625 C-46.27195313 74.34546875 -45.64546875 74.1753125 -45 74 C-45 75.32 -45 76.64 -45 78 C-44.01 77.67 -43.02 77.34 -42 77 C-40.23107476 81.92772031 -39.0681847 86.88634986 -38 92 C-35.525 91.01 -35.525 91.01 -33 90 C-33.495 89.030625 -33.99 88.06125 -34.5 87.0625 C-37.35712584 79.42071366 -37.83592841 67.93643772 -34.5 60.375 C-32.27474154 56.82725698 -29.15906838 54.28236456 -25.95703125 51.6328125 C-20.52795356 47.10316285 -18.22574615 42.52270241 -16.02734375 35.98046875 C-14.99444154 32.98387414 -13.81084844 30.10031302 -12.5625 27.1875 C-10.66978842 22.74223243 -9.04660857 18.26429779 -7.5 13.6875 C-5.63907649 8.3528526 -3.60881594 4.33057913 0 0 Z " fill="#2F3F6B" transform="translate(220,155)"/>
<path d="M0 0 C3.00221784 4.50332676 4.31896025 8.57767579 4 14 C4.66 14 5.32 14 6 14 C8.12224612 20.06356034 8.30154278 25.60869483 8.25 32 C8.26160156 33.43859375 8.26160156 33.43859375 8.2734375 34.90625 C8.24816388 44.10584922 6.12239624 52.26220039 1 60 C-1.15782721 61.86836259 -3.3958641 62.87771549 -6 64 C-6.59554687 64.36867188 -7.19109375 64.73734375 -7.8046875 65.1171875 C-13.69588761 68.66168549 -19.27491901 68.40350486 -26 68 C-26 67.01 -26 66.02 -26 65 C-25.01 64.34 -24.02 63.68 -23 63 C-23.969375 62.731875 -24.93875 62.46375 -25.9375 62.1875 C-26.948125 61.795625 -27.95875 61.40375 -29 61 C-29.33 60.01 -29.66 59.02 -30 58 C-29.67 57.34 -29.34 56.68 -29 56 C-30.7325 56.1546875 -30.7325 56.1546875 -32.5 56.3125 C-38.80607487 56.32368098 -42.8443231 52.73505702 -47.5625 48.9375 C-48.036875 48.298125 -48.51125 47.65875 -49 47 C-48.58984375 44.87890625 -48.58984375 44.87890625 -48 43 C-46.783125 42.87625 -45.56625 42.7525 -44.3125 42.625 C-41.46518015 41.90307316 -40.26527998 41.32516114 -38.390625 39.02734375 C-35.06523183 32.85580525 -34.14533983 26.94988639 -34 20 C-33.67 20 -33.34 20 -33 20 C-32.67 21.98 -32.34 23.96 -32 26 C-31.01 26.33 -30.02 26.66 -29 27 C-28.443125 27.721875 -27.88625 28.44375 -27.3125 29.1875 C-23.5984437 33.7045955 -18.83878654 36.77414231 -14 40 C-13.97059542 36.83335334 -13.95306685 33.66674253 -13.9375 30.5 C-13.92493164 29.1696875 -13.92493164 29.1696875 -13.91210938 27.8125 C-13.89677746 23.64221929 -13.99364494 19.77791549 -14.79296875 15.6796875 C-15 12 -15 12 -13.0859375 9.1015625 C-12.19132812 8.28429687 -11.29671875 7.46703125 -10.375 6.625 C-9.49585938 5.79226562 -8.61671875 4.95953125 -7.7109375 4.1015625 C-5.16207803 2.12564551 -3.04425879 1.00009946 0 0 Z " fill="#405995" transform="translate(112,174)"/>
<path d="M0 0 C1.23556641 0.21076172 1.23556641 0.21076172 2.49609375 0.42578125 C4.96244823 0.82996643 7.43465521 1.19921786 9.91015625 1.54296875 C11.29442128 1.75684098 12.67853425 1.97169955 14.0625 2.1875 C14.75666016 2.27580078 15.45082031 2.36410156 16.16601562 2.45507812 C20.06709389 3.09599602 21.99961611 3.99965465 24.95703125 6.66015625 C29.24586348 13.6715359 27.84244733 22.76084921 26.04296875 30.51953125 C24.86378636 35.06759668 23.45755425 39.53468343 22 44 C21.5532063 45.40879737 21.10658683 46.81765002 20.66015625 48.2265625 C18.70688102 54.2848532 16.53636626 60.15826281 14 66 C13.37017469 67.64399283 12.74465815 69.28964802 12.125 70.9375 C8.67564188 79.52835418 3.66515437 88.22769042 -4.9375 92.4375 C-5.618125 92.623125 -6.29875 92.80875 -7 93 C-7 93.66 -7 94.32 -7 95 C-7.78375 95.28875 -8.5675 95.5775 -9.375 95.875 C-12.09671632 96.84912254 -12.09671632 96.84912254 -14 99 C-22.26963205 102.53491292 -29.76749925 104.58843773 -38.5 101.9375 C-45.42201636 98.52456138 -51.11493946 93.07466056 -56.42578125 87.578125 C-58.47283346 85.52599325 -60.69170362 83.74870938 -63 82 C-62.505 81.01 -62.505 81.01 -62 80 C-61.01 80.66 -60.02 81.32 -59 82 C-59.495 79.525 -59.495 79.525 -60 77 C-58.1875 77.1875 -58.1875 77.1875 -56 78 C-54.97388051 79.65071396 -53.97691857 81.31970006 -53 83 C-51.35704805 84.36244796 -49.69175663 85.69864875 -48 87 C-47.34 87.99 -46.68 88.98 -46 90 C-45.38125 90.309375 -44.7625 90.61875 -44.125 90.9375 C-42 92 -42 92 -40.3125 94.0625 C-36.72766364 97.06601154 -33.50277279 97.35408436 -29 97 C-25.99804227 96.41333582 -23.06729553 95.64549421 -20.125 94.8125 C-19.37516846 94.60439697 -18.62533691 94.39629395 -17.8527832 94.18188477 C-13.71786535 92.9124458 -11.11278717 91.8845339 -9 88 C-10.94603274 87.40929986 -10.94603274 87.40929986 -13 87 C-13.33 87.33 -13.66 87.66 -14 88 C-15.66617115 88.04063832 -17.33388095 88.042721 -19 88 C-19 87.34 -19 86.68 -19 86 C-19.56203125 85.86980469 -20.1240625 85.73960937 -20.703125 85.60546875 C-28.51301082 83.54674034 -34.82597879 80.17376079 -41 75 C-40.01 74.505 -40.01 74.505 -39 74 C-35.96161767 75.37363991 -33.07385931 76.97015138 -30.140625 78.5546875 C-27.02493559 79.98852467 -24.39040541 80.60411434 -21 81 C-21 80.34 -21 79.68 -21 79 C-19.2984375 78.5978125 -19.2984375 78.5978125 -17.5625 78.1875 C-16.386875 77.795625 -15.21125 77.40375 -14 77 C-13.505 75.515 -13.505 75.515 -13 74 C-13.99 74.66 -14.98 75.32 -16 76 C-17.32 76 -18.64 76 -20 76 C-20.66 74.68 -21.32 73.36 -22 72 C-22.66 72.66 -23.32 73.32 -24 74 C-24.33 73.67 -24.66 73.34 -25 73 C-25 71.35 -25 69.7 -25 68 C-18.07 68.99 -18.07 68.99 -11 70 C-11.04125 68.55625 -11.0825 67.1125 -11.125 65.625 C-11.13212045 60.17785788 -10.66088306 54.84451089 -10.0625 49.4375 C-9.97564941 48.63973145 -9.88879883 47.84196289 -9.79931641 47.02001953 C-9.13023383 41.26046766 -9.13023383 41.26046766 -8 39 C-6.9171875 38.8453125 -6.9171875 38.8453125 -5.8125 38.6875 C-2.56306502 37.89319367 -1.0553938 36.31468493 1.4140625 34.15234375 C4.89687108 31.62173161 8.56281876 31.78536971 12.66796875 32.3984375 C15.12870311 32.87739567 17.56448337 33.40704726 20 34 C23.07993515 24.67543675 23.07993515 24.67543675 21.4375 15.4375 C20.37956765 13.69520167 20.37956765 13.69520167 19 12 C18.42636719 11.15953125 17.85273438 10.3190625 17.26171875 9.453125 C14.50672751 6.46498251 12.20154106 5.61248742 8.375 4.3125 C2.17324185 2.17324185 2.17324185 2.17324185 0 0 Z M10 49 C9.3503125 50.7015625 9.3503125 50.7015625 8.6875 52.4375 C8.130625 53.613125 7.57375 54.78875 7 56 C3.90521121 57.03159626 2.47368607 56.97482862 -0.6875 56.5625 C-1.49574219 56.46066406 -2.30398437 56.35882813 -3.13671875 56.25390625 C-3.75160156 56.17011719 -4.36648437 56.08632812 -5 56 C-4.95359375 56.72445312 -4.9071875 57.44890625 -4.859375 58.1953125 C-4.6253088 64.4649429 -4.83691197 68.00429437 -9 73 C-9.515625 73.86625 -10.03125 74.7325 -10.5625 75.625 C-11.92057342 77.86877348 -13.39096388 79.93123927 -15 82 C-12.69 82.33 -10.38 82.66 -8 83 C-8.33 84.32 -8.66 85.64 -9 87 C-4.71193127 86.52354792 -2.73352513 85.34097516 0 82 C0 81.34 0 80.68 0 80 C0.66 80 1.32 80 2 80 C2.67408308 78.73308493 3.33900497 77.46129251 4 76.1875 C4.37125 75.47980469 4.7425 74.77210938 5.125 74.04296875 C6.19685358 71.91079271 6.19685358 71.91079271 6 69 C6.32380126 67.66431979 6.65657551 66.33076989 7 65 C7 64.34 7 63.68 7 63 C7.31478446 61.66216607 7.64587656 60.32796291 8 59 C8.78375 59.04125 9.5675 59.0825 10.375 59.125 C13.16116119 59.28728734 13.16116119 59.28728734 15 57 C15.37942388 54.04049371 15.45422179 52.59874691 13.625 50.1875 C12.06631217 48.8033278 12.06631217 48.8033278 10 49 Z " fill="#805940" transform="translate(196,112)"/>
<path d="M0 0 C0.33 0 0.66 0 1 0 C1.33 1.98 1.66 3.96 2 6 C2.99 6.33 3.98 6.66 5 7 C5.556875 7.721875 6.11375 8.44375 6.6875 9.1875 C10.4015563 13.7045955 15.16121346 16.77414231 20 20 C20.33 17.36 20.66 14.72 21 12 C21.33 12 21.66 12 22 12 C22.56818184 21.78535391 22.2441688 32.32137025 15.75 40.3125 C11.76406532 42.75841446 9.4973575 41.99094318 5 41 C4.67 40.01 4.34 39.02 4 38 C4.33 37.34 4.66 36.68 5 36 C3.2675 36.1546875 3.2675 36.1546875 1.5 36.3125 C-4.80607487 36.32368098 -8.8443231 32.73505702 -13.5625 28.9375 C-14.2740625 27.9784375 -14.2740625 27.9784375 -15 27 C-14.58984375 24.87890625 -14.58984375 24.87890625 -14 23 C-12.783125 22.87625 -11.56625 22.7525 -10.3125 22.625 C-7.46518015 21.90307316 -6.26527998 21.32516114 -4.390625 19.02734375 C-1.06523183 12.85580525 -0.14533983 6.94988639 0 0 Z " fill="#2B4F98" transform="translate(78,194)"/>
<path d="M0 0 C1.52734375 1.22265625 1.52734375 1.22265625 3 3 C3.00390625 5.12109375 3.00390625 5.12109375 2.5625 7.4375 C1.88839622 11.02664717 1.97385344 12.89597076 4 16 C7.42932071 17.71466036 11.21716065 17.05404056 15 17 C15 14.03 15 11.06 15 8 C15.33 8.99 15.66 9.98 16 11 C16.99 11 17.98 11 19 11 C19 10.01 19 9.02 19 8 C22.66172475 8.62678171 25.8818995 9.64451846 29.3125 11.0625 C30.19550781 11.42472656 31.07851562 11.78695312 31.98828125 12.16015625 C32.65214844 12.43730469 33.31601563 12.71445313 34 13 C34.23460937 12.37609375 34.46921875 11.7521875 34.7109375 11.109375 C36.36823075 8.39744059 37.6141599 8.11024003 40.625 7.25 C41.44226563 7.00765625 42.25953125 6.7653125 43.1015625 6.515625 C43.72804687 6.34546875 44.35453125 6.1753125 45 6 C45 7.32 45 8.64 45 10 C45.99 9.67 46.98 9.34 48 9 C49.76892524 13.92772031 50.9318153 18.88634986 52 24 C41.44191344 23.40546697 41.44191344 23.40546697 37 20 C36.505 21.485 36.505 21.485 36 23 C31.28809898 23.37695208 27.92629407 23.46314703 23.625 21.3125 C21.03758184 19.03310781 19.53402683 17.06805366 18 14 C17.3503125 15.175625 17.3503125 15.175625 16.6875 16.375 C15 19 15 19 12 21 C8.31535423 21.48060597 6.50159544 21.28499741 3.25 19.4375 C0.49904667 16.45730056 -0.16937768 13.92657825 -1 10 C-1.99 10.99 -2.98 11.98 -4 13 C-4.66 12.67 -5.32 12.34 -6 12 C-5.67 8.7 -5.34 5.4 -5 2 C-4.01 3.32 -3.02 4.64 -2 6 C-1.34 4.02 -0.68 2.04 0 0 Z " fill="#033B8A" transform="translate(130,223)"/>
<path d="M0 0 C3.75 1 3.75 1 6 2 C6 3.65 6 5.3 6 7 C5.67 7 5.34 7 5 7 C4.34 10.3 3.68 13.6 3 17 C2.34 17 1.68 17 1 17 C0.67 18.32 0.34 19.64 0 21 C-0.680625 19.7934375 -0.680625 19.7934375 -1.375 18.5625 C-2.74725665 15.91143428 -2.74725665 15.91143428 -5 15 C-5.103125 15.928125 -5.20625 16.85625 -5.3125 17.8125 C-6.02935944 21.13612102 -6.30115492 22.07989656 -9 24 C-11.41015625 23.9609375 -11.41015625 23.9609375 -14.0625 23.375 C-14.94035156 23.19710937 -15.81820312 23.01921875 -16.72265625 22.8359375 C-19 22 -19 22 -21 19 C-21.66 19.33 -22.32 19.66 -23 20 C-22.85892253 18.54119891 -22.71197585 17.08296449 -22.5625 15.625 C-22.48128906 14.81289062 -22.40007812 14.00078125 -22.31640625 13.1640625 C-22 11 -22 11 -21 9 C-20.34 9 -19.68 9 -19 9 C-18.773125 8.443125 -18.54625 7.88625 -18.3125 7.3125 C-13.71614394 -0.78584163 -8.69083369 -0.92655312 0 0 Z " fill="#92674B" transform="translate(211,146)"/>
<path d="M0 0 C2 1 2 1 2 1 Z M-2 1 C-1.34 1.33 -0.68 1.66 0 2 C-1.11799986 3.33920838 -2.24461897 4.67122556 -3.375 6 C-4.00148437 6.7425 -4.62796875 7.485 -5.2734375 8.25 C-5.84320313 8.8275 -6.41296875 9.405 -7 10 C-7.66 10 -8.32 10 -9 10 C-9.24954005 11.43410368 -9.47392642 12.87260072 -9.6875 14.3125 C-9.87892578 15.51326172 -9.87892578 15.51326172 -10.07421875 16.73828125 C-10.25770581 19.07505852 -10.25770581 19.07505852 -8.546875 20.4296875 C-6.25926661 22.75195662 -6.56652014 24.61649185 -6.5625 27.8125 C-6.68907255 33.06526066 -7.52018151 35.92364119 -11 40 C-11.515625 40.886875 -12.03125 41.77375 -12.5625 42.6875 C-13.8735252 44.79654054 -15.16768896 46.34219478 -17 48 C-14.69 48.66 -12.38 49.32 -10 50 C-10.6796875 51.953125 -10.6796875 51.953125 -12 54 C-14.3828125 54.609375 -14.3828125 54.609375 -17.125 54.75 C-18.03507812 54.80671875 -18.94515625 54.8634375 -19.8828125 54.921875 C-20.58148438 54.94765625 -21.28015625 54.9734375 -22 55 C-22 54.34 -22 53.68 -22 53 C-22.56203125 52.86980469 -23.1240625 52.73960937 -23.703125 52.60546875 C-31.51301082 50.54674034 -37.82597879 47.17376079 -44 42 C-43.01 41.505 -43.01 41.505 -42 41 C-38.96161767 42.37363991 -36.07385931 43.97015138 -33.140625 45.5546875 C-30.02493559 46.98852467 -27.39040541 47.60411434 -24 48 C-24 47.34 -24 46.68 -24 46 C-22.865625 45.731875 -21.73125 45.46375 -20.5625 45.1875 C-18.7990625 44.5996875 -18.7990625 44.5996875 -17 44 C-16.67 43.01 -16.34 42.02 -16 41 C-16.99 41.66 -17.98 42.32 -19 43 C-20.32 43 -21.64 43 -23 43 C-23.66 41.68 -24.32 40.36 -25 39 C-25.66 39.66 -26.32 40.32 -27 41 C-27.495 40.505 -27.495 40.505 -28 40 C-28 38.35 -28 36.7 -28 35 C-23.38 35.66 -18.76 36.32 -14 37 C-14.04125 35.55625 -14.0825 34.1125 -14.125 32.625 C-14.13212045 27.17785788 -13.66088306 21.84451089 -13.0625 16.4375 C-12.97564941 15.63973145 -12.88879883 14.84196289 -12.79931641 14.02001953 C-12.13023383 8.26046766 -12.13023383 8.26046766 -11 6 C-10.236875 5.87625 -9.47375 5.7525 -8.6875 5.625 C-5.40472026 4.86156285 -4.1786618 3.50142651 -2 1 Z " fill="#A27659" transform="translate(199,145)"/>
<path d="M0 0 C3.75580971 5.63371457 3.18319104 11.23271665 3.1875 17.8125 C3.19974609 18.78509766 3.21199219 19.75769531 3.22460938 20.75976562 C3.24344652 30.03392118 1.1709819 38.19577401 -4 46 C-6.27992078 47.98064717 -8.14410149 48.76900926 -11 50 C-12.051875 50.5775 -13.10375 51.155 -14.1875 51.75 C-19.17314993 53.86547073 -24.69819325 53.23505547 -30 53 C-27.56413136 51.736957 -25.30321303 50.76335537 -22.6875 49.875 C-16.0293042 47.03169321 -11.80497162 40.51240777 -8.82421875 34.1484375 C-7.59356593 30.9405747 -6.76616837 27.64443174 -6.00390625 24.296875 C-5 22 -5 22 -2.421875 20.28125 C0.32776982 17.69126198 0.36241464 17.25625544 0.48828125 13.671875 C0.45518977 12.03053757 0.39575882 10.38955835 0.3125 8.75 C0.28994141 7.90953125 0.26738281 7.0690625 0.24414062 6.203125 C0.18537714 4.13465036 0.09569885 2.06709512 0 0 Z " fill="#2F5197" transform="translate(117,188)"/>
<path d="M0 0 C0.33 0 0.66 0 1 0 C1.56818184 9.78535391 1.2441688 20.32137025 -5.25 28.3125 C-9.23593468 30.75841446 -11.5026425 29.99094318 -16 29 C-16.33 28.01 -16.66 27.02 -17 26 C-16.67 25.34 -16.34 24.68 -16 24 C-18.31 23.67 -20.62 23.34 -23 23 C-23 22.67 -23 22.34 -23 22 C-20.03 21.34 -17.06 20.68 -14 20 C-14 19.01 -14 18.02 -14 17 C-13.34 17 -12.68 17 -12 17 C-11.14701624 13.32612505 -10.89210529 9.9552607 -10.9375 6.1875 C-10.94652344 5.21167969 -10.95554687 4.23585937 -10.96484375 3.23046875 C-10.97644531 2.49441406 -10.98804687 1.75835937 -11 1 C-9.51990357 1.97776067 -8.04094856 2.9572494 -6.5625 3.9375 C-5.73878906 4.48277344 -4.91507813 5.02804688 -4.06640625 5.58984375 C-2 7 -2 7 -1 8 C-0.67 5.36 -0.34 2.72 0 0 Z " fill="#0F3D86" transform="translate(99,206)"/>
<path d="M0 0 C0.93005859 0.28037109 0.93005859 0.28037109 1.87890625 0.56640625 C1.06486328 1.27216797 1.06486328 1.27216797 0.234375 1.9921875 C-0.48105469 2.61480469 -1.19648437 3.23742187 -1.93359375 3.87890625 C-2.64128906 4.49378906 -3.34898438 5.10867187 -4.078125 5.7421875 C-4.75230469 6.34417969 -5.42648438 6.94617188 -6.12109375 7.56640625 C-6.72308594 7.97246094 -7.32507813 8.37851563 -7.9453125 8.796875 C-9.62526927 11.32518203 -8.93758365 13.291802 -8.45361328 16.16796875 C-7.81518933 20.772871 -8.01901279 25.42630043 -8.05859375 30.06640625 C-8.06310547 31.07960937 -8.06761719 32.0928125 -8.07226562 33.13671875 C-8.08394782 35.61334452 -8.10032793 38.08984282 -8.12109375 40.56640625 C-16.74202839 34.17210565 -16.74202839 34.17210565 -20.62109375 30.81640625 C-21.29140625 30.2440625 -21.96171875 29.67171875 -22.65234375 29.08203125 C-24.12109375 27.56640625 -24.12109375 27.56640625 -24.12109375 25.56640625 C-24.78109375 25.56640625 -25.44109375 25.56640625 -26.12109375 25.56640625 C-26.78109375 26.22640625 -27.44109375 26.88640625 -28.12109375 27.56640625 C-28.18296875 26.28765625 -28.24484375 25.00890625 -28.30859375 23.69140625 C-28.82307886 18.75702629 -30.6313807 15.10496661 -33.0625 10.828125 C-34.12109375 8.56640625 -34.12109375 8.56640625 -34.12109375 4.56640625 C-33.46109375 4.56640625 -32.80109375 4.56640625 -32.12109375 4.56640625 C-31.79109375 5.88640625 -31.46109375 7.20640625 -31.12109375 8.56640625 C-30.46109375 8.23640625 -29.80109375 7.90640625 -29.12109375 7.56640625 C-28.85554688 8.34886719 -28.59 9.13132813 -28.31640625 9.9375 C-27.96320313 10.94941406 -27.61 11.96132812 -27.24609375 13.00390625 C-26.89804688 14.01324219 -26.55 15.02257812 -26.19140625 16.0625 C-25.38054282 18.70612376 -25.38054282 18.70612376 -23.12109375 19.56640625 C-23.12109375 20.55640625 -23.12109375 21.54640625 -23.12109375 22.56640625 C-22.13109375 22.89640625 -21.14109375 23.22640625 -20.12109375 23.56640625 C-18.75474348 25.59237389 -17.64811491 27.69553152 -16.5 29.8515625 C-15.81744141 30.70041016 -15.81744141 30.70041016 -15.12109375 31.56640625 C-13.80109375 31.56640625 -12.48109375 31.56640625 -11.12109375 31.56640625 C-11.42144531 31.07011719 -11.72179687 30.57382813 -12.03125 30.0625 C-14.86065411 25.00793741 -15.53023201 22.20295929 -14.12109375 16.56640625 C-13.79109375 16.56640625 -13.46109375 16.56640625 -13.12109375 16.56640625 C-12.89421875 15.37015625 -12.66734375 14.17390625 -12.43359375 12.94140625 C-11.05899044 7.43324403 -8.16836223 4.48959785 -4.05859375 0.62890625 C-2.12109375 -0.43359375 -2.12109375 -0.43359375 0 0 Z " fill="#072358" transform="translate(107.12109375,175.43359375)"/>
<path d="M0 0 C4.96417375 1.82890612 9.02601409 3.53902114 12 8 C12.07905064 10.33199388 12.08798769 12.66832622 12 15 C10 12 10 12 9 9.875 C8.14139842 7.82955462 8.14139842 7.82955462 6 7 C6.12375 8.11375 6.12375 8.11375 6.25 9.25 C6 12 6 12 4.375 14.375 C2 16 2 16 -0.8125 16.0625 C-4.92071154 14.69309615 -7.5894182 12.66025381 -11 10 C-10.67 7.69 -10.34 5.38 -10 3 C-11.32 3.33 -12.64 3.66 -14 4 C-9.73493024 -0.45893656 -6.02808782 -0.8273846 0 0 Z " fill="#070605" transform="translate(159,142)"/>
<path d="M0 0 C0.33 1.32 0.66 2.64 1 4 C1.99 3.67 2.98 3.34 4 3 C5.76892524 7.92772031 6.9318153 12.88634986 8 18 C6.37419034 17.88601335 4.74932843 17.75844341 3.125 17.625 C2.22007812 17.55539063 1.31515625 17.48578125 0.3828125 17.4140625 C-2 17 -2 17 -4 15 C-6.83026735 15.10630112 -9.56663264 15.51788255 -12.37109375 15.90625 C-15 16 -15 16 -18 14 C-16.02 13.67 -14.04 13.34 -12 13 C-11.84850702 9.37114676 -11.84850702 9.37114676 -13 6 C-12.01 6.33 -11.02 6.66 -10 7 C-9.835 6.401875 -9.67 5.80375 -9.5 5.1875 C-7.18723796 1.81472202 -3.80108663 1.1668452 0 0 Z " fill="#03317D" transform="translate(174,229)"/>
<path d="M0 0 C1.8125 0.1875 1.8125 0.1875 4 1 C5.02611949 2.65071396 6.02308143 4.31970006 7 6 C8.64295195 7.36244796 10.30824337 8.69864875 12 10 C12.99 11.485 12.99 11.485 14 13 C14.928125 13.4640625 14.928125 13.4640625 15.875 13.9375 C18 15 18 15 19.6875 17.0625 C23.24792144 20.04555581 26.42453527 20.3084583 31 20 C34.72026525 19.09419629 38.32644262 18.01608 41.9609375 16.8125 C45 16 45 16 48 17 C47.34 17 46.68 17 46 17 C46 17.99 46 18.98 46 20 C42.04 20.495 42.04 20.495 38 21 C38 21.66 38 22.32 38 23 C33.06506675 24.42822774 28.09193035 24.57084421 23 24 C20.25 22.125 20.25 22.125 18 20 C16.9275 19.773125 15.855 19.54625 14.75 19.3125 C9.92429287 17.6235025 7.54846925 14.87068275 4.08984375 11.19921875 C1.89026056 8.88451719 -0.43632823 6.90207905 -3 5 C-2.67 4.34 -2.34 3.68 -2 3 C-0.515 3.99 -0.515 3.99 1 5 C0.67 3.35 0.34 1.7 0 0 Z " fill="#9A6D4E" transform="translate(136,189)"/>
<path d="M0 0 C0.66796875 1.82421875 0.66796875 1.82421875 1 4 C-0.41719363 5.48310961 -1.84716274 6.95802012 -3.36328125 8.33984375 C-5.90052867 10.91342407 -7.33907627 13.80591591 -9 17 C-9.66 17 -10.32 17 -11 17 C-11 17.99 -11 18.98 -11 20 C-11.66 20 -12.32 20 -13 20 C-13.268125 20.53625 -13.53625 21.0725 -13.8125 21.625 C-14.67132874 23.34265748 -15.59726795 25.02730088 -16.5625 26.6875 C-18.22709967 30.52331663 -18.30520432 33.21611388 -18.1875 37.375 C-18.16042969 38.62023437 -18.13335937 39.86546875 -18.10546875 41.1484375 C-18.07066406 42.08945313 -18.03585938 43.03046875 -18 44 C-20.2553072 41.13443321 -22.07217035 38.23722426 -23.75 35 C-24.19859375 34.154375 -24.6471875 33.30875 -25.109375 32.4375 C-26.1367778 29.62566075 -26.00892752 28.75925639 -25 26 C-23.66821289 24.45117188 -23.66821289 24.45117188 -21.97265625 22.96875 C-21.3494751 22.41074707 -20.72629395 21.85274414 -20.08422852 21.27783203 C-19.41705811 20.69114746 -18.7498877 20.10446289 -18.0625 19.5 C-11.35859273 13.44894067 -5.54638875 7.12547825 0 0 Z " fill="#7B4F32" transform="translate(140,130)"/>
<path d="M0 0 C3.75580971 5.63371457 3.18319104 11.23271665 3.1875 17.8125 C3.19974609 18.78509766 3.21199219 19.75769531 3.22460938 20.75976562 C3.24341443 30.0181226 1.18760356 38.21859466 -4 46 C-6.2824565 47.90887057 -8.21882231 48.78639519 -11 50 C-11.70125 50.4125 -12.4025 50.825 -13.125 51.25 C-15.49427637 52.19771055 -17.47306373 52.14038535 -20 52 C-16.34850309 47.27377173 -13.41420808 44.64950608 -8 42 C-2.40358215 36.66388065 -0.32521938 30.43024032 0.23852539 22.75073242 C0.29374465 19.28727169 0.26278287 15.83801218 0.1875 12.375 C0.17396484 11.18003906 0.16042969 9.98507813 0.14648438 8.75390625 C0.11146292 5.835452 0.06234993 2.91797652 0 0 Z " fill="#22417F" transform="translate(117,188)"/>
<path d="M0 0 C7.04462688 0.10815701 11.40105943 0.69966872 16.75 5.5 C17.265625 6.098125 17.78125 6.69625 18.3125 7.3125 C16.70816191 6.83390759 15.10403584 6.35460442 13.5 5.875 C12.60667969 5.60816406 11.71335938 5.34132813 10.79296875 5.06640625 C8.95776945 4.50862127 7.13216274 3.91905425 5.3125 3.3125 C1.9834041 2.56067347 1.9834041 2.56067347 -1.6875 3.3125 C-6.58018873 7.3369663 -9.79450911 12.7579575 -12.6875 18.3125 C-13.3475 18.3125 -14.0075 18.3125 -14.6875 18.3125 C-14.935 19.17875 -15.1825 20.045 -15.4375 20.9375 C-17.25587486 25.84711211 -19.30092978 29.38811985 -23.6875 32.3125 C-22.02544883 27.91445689 -19.98628471 23.75647193 -17.875 19.5625 C-17.51970215 18.85528809 -17.1644043 18.14807617 -16.79833984 17.41943359 C-8.01568685 0.02555479 -8.01568685 0.02555479 0 0 Z " fill="#875B3F" transform="translate(164.6875,97.6875)"/>
<path d="M0 0 C0.66 0 1.32 0 2 0 C-1.30523513 11.01745042 -5.52358907 21.87899756 -15 29 C-17.74609375 30.2109375 -17.74609375 30.2109375 -20 31 C-20 31.66 -20 32.32 -20 33 C-20.78375 33.28875 -21.5675 33.5775 -22.375 33.875 C-25.09671632 34.84912254 -25.09671632 34.84912254 -27 37 C-35.10414676 40.46417506 -43.2883718 43.01878645 -51.8125 39.75 C-54.80323977 38.10802522 -56.78527449 36.56908159 -59 34 C-54.39759036 34.63922356 -54.39759036 34.63922356 -52.3125 36.53125 C-49.04547943 38.60624955 -45.98460405 38.32516499 -42.25 38.1875 C-41.55261719 38.17396484 -40.85523438 38.16042969 -40.13671875 38.14648438 C-38.42414459 38.1112945 -36.71197059 38.05749155 -35 38 C-35 37.34 -35 36.68 -35 36 C-32.36 35.67 -29.72 35.34 -27 35 C-27 34.01 -27 33.02 -27 32 C-25.390625 30.61328125 -25.390625 30.61328125 -23.25 29.3125 C-22.55390625 28.87550781 -21.8578125 28.43851563 -21.140625 27.98828125 C-19 27 -19 27 -15 27 C-14.7525 26.4225 -14.505 25.845 -14.25 25.25 C-12.81700012 22.67060021 -11.21575324 20.93878408 -9 19 C-8.34 19 -7.68 19 -7 19 C-6.82984375 18.46632812 -6.6596875 17.93265625 -6.484375 17.3828125 C-4.56536676 11.4828829 -2.35945761 5.73695531 0 0 Z " fill="#885940" transform="translate(209,174)"/>
<path d="M0 0 C0.03738281 0.99 0.07476562 1.98 0.11328125 3 C0.44627257 10.1317897 0.92217034 16.44288463 4 23 C3.34 23.66 2.68 24.32 2 25 C0.68 25 -0.64 25 -2 25 C-2.29003906 24.11248047 -2.29003906 24.11248047 -2.5859375 23.20703125 C-3.94414719 19.0853355 -5.32050585 15.0049476 -7 11 C-7.66 11 -8.32 11 -9 11 C-8.875 7.75 -8.875 7.75 -8 4 C-3.17948718 0 -3.17948718 0 0 0 Z " fill="#012466" transform="translate(184,222)"/>
<path d="M0 0 C2 1 2 1 2 1 Z M-2 1 C-1.34 1.33 -0.68 1.66 0 2 C-1.11799986 3.33920838 -2.24461897 4.67122556 -3.375 6 C-4.31472656 7.11375 -4.31472656 7.11375 -5.2734375 8.25 C-6.12808594 9.11625 -6.12808594 9.11625 -7 10 C-7.66 10 -8.32 10 -9 10 C-9.24954005 11.43410368 -9.47392642 12.87260072 -9.6875 14.3125 C-9.81511719 15.11300781 -9.94273437 15.91351563 -10.07421875 16.73828125 C-10.25845928 19.07488452 -10.25845928 19.07488452 -8.546875 20.421875 C-6.24226334 22.77304447 -6.5664849 24.71371613 -6.5625 27.9375 C-6.54316406 28.97777344 -6.52382812 30.01804688 -6.50390625 31.08984375 C-7.10430884 34.61189042 -8.28541015 35.76919844 -11 38 C-11 36.02 -11 34.04 -11 32 C-11.66 32 -12.32 32 -13 32 C-13 33.65 -13 35.3 -13 37 C-13.33 37 -13.66 37 -14 37 C-14.27454208 30.0754387 -13.82344248 23.31340363 -13.0625 16.4375 C-12.97564941 15.63973145 -12.88879883 14.84196289 -12.79931641 14.02001953 C-12.13023383 8.26046766 -12.13023383 8.26046766 -11 6 C-10.236875 5.87625 -9.47375 5.7525 -8.6875 5.625 C-5.40472026 4.86156285 -4.1786618 3.50142651 -2 1 Z " fill="#B18263" transform="translate(199,145)"/>
<path d="M0 0 C0.33 0 0.66 0 1 0 C1.12375 0.969375 1.2475 1.93875 1.375 2.9375 C1.58125 3.948125 1.7875 4.95875 2 6 C2.66 6.33 3.32 6.66 4 7 C4.49578186 12.94938234 3.43777201 17.06754451 0 22 C-2.15464015 24.26021272 -4.3781658 26.295162 -7 28 C-7.66 28 -8.32 28 -9 28 C-9.33 28.99 -9.66 29.98 -10 31 C-11.65 29.68 -13.3 28.36 -15 27 C-14.67 25.68 -14.34 24.36 -14 23 C-12.783125 22.87625 -11.56625 22.7525 -10.3125 22.625 C-7.46518015 21.90307316 -6.26527998 21.32516114 -4.390625 19.02734375 C-1.06523183 12.85580525 -0.14533983 6.94988639 0 0 Z " fill="#3C5698" transform="translate(78,194)"/>
<path d="M0 0 C2.12470127 0.76791638 3.94874293 1.72059021 5.90625 2.84375 C9.75237619 4.96773013 13.9061747 6.42287058 18 8 C18 9.32 18 10.64 18 12 C10.45884799 12.85142039 7.5324099 11.27699355 1.640625 6.69140625 C-2.59889605 3.97585504 -7.05844575 3.4603349 -12 3 C-12 2.34 -12 1.68 -12 1 C-8.27720592 -0.86139704 -4.06250293 -0.43740813 0 0 Z " fill="#504137" transform="translate(163,129)"/>
<path d="M0 0 C1.23556641 0.21076172 1.23556641 0.21076172 2.49609375 0.42578125 C4.96244823 0.82996643 7.43465521 1.19921786 9.91015625 1.54296875 C11.29442128 1.75684098 12.67853425 1.97169955 14.0625 2.1875 C15.10374023 2.31995117 15.10374023 2.31995117 16.16601562 2.45507812 C20.02779904 3.08954017 22.00986278 4.00864291 24.96875 6.6015625 C27.45964129 10.76901524 27.66016701 13.45036856 27.4375 18.1875 C27.43169922 18.89841797 27.42589844 19.60933594 27.41992188 20.34179688 C27.33250145 24.05891344 27.10394895 25.84407657 25 29 C24.98582031 28.31035156 24.97164062 27.62070313 24.95703125 26.91015625 C24.55656738 19.01993575 22.69478065 12.69478065 17 7 C13.74923175 5.91787095 10.46406907 5.01763551 7.1640625 4.09765625 C4.21439752 3.07437741 2.34037738 2.02333119 0 0 Z " fill="#7A4F31" transform="translate(196,112)"/>
<path d="M0 0 C0.721875 0.103125 1.44375 0.20625 2.1875 0.3125 C2.1875 0.9725 2.1875 1.6325 2.1875 2.3125 C1.300625 2.4775 0.41375 2.6425 -0.5 2.8125 C-7.61063229 6.03240896 -10.40492369 15.48113784 -13.72119141 22.22802734 C-21.40332763 37.70447417 -21.40332763 37.70447417 -27.8125 43.3125 C-31.0625 44.0625 -31.0625 44.0625 -33.8125 44.3125 C-32.32208227 40.51870942 -30.12187488 38.62906242 -26.8125 36.3125 C-26.1525 36.3125 -25.4925 36.3125 -24.8125 36.3125 C-24.54695312 35.57644531 -24.28140625 34.84039062 -24.0078125 34.08203125 C-22.82533107 31.3422295 -21.49228955 29.36301515 -19.6875 27 C-16.02456213 21.93293595 -13.33604654 16.60050395 -10.74169922 10.93432617 C-8.43324812 6.04375402 -5.86392857 0.65154762 0 0 Z " fill="#211C21" transform="translate(161.8125,94.6875)"/>
<path d="M0 0 C0 3 0 3 -0.5 6 C-1.40084035 12.03563034 -2.04093097 19.15960004 0 25 C1.97670607 26.75422772 1.97670607 26.75422772 4 28 C4.66 27.67 5.32 27.34 6 27 C6.66 27.66 7.32 28.32 8 29 C7.34 29.33 6.68 29.66 6 30 C6 30.66 6 31.32 6 32 C1.40246046 31.23374341 1.40246046 31.23374341 -0.7890625 29.9609375 C-3.69244438 28.69904361 -5.97588907 28.87620203 -9.125 29 C-12.3203125 29.125 -12.3203125 29.125 -15 29 C-15.66 28.34 -16.32 27.68 -17 27 C-12.71 27 -8.42 27 -4 27 C-3.67 26.34 -3.34 25.68 -3 25 C-3.33 24.01 -3.66 23.02 -4 22 C-4.08021999 20.59175107 -4.10765977 19.18002769 -4.09765625 17.76953125 C-4.09443359 16.96708984 -4.09121094 16.16464844 -4.08789062 15.33789062 C-4.07951172 14.50451172 -4.07113281 13.67113281 -4.0625 12.8125 C-4.05798828 11.96751953 -4.05347656 11.12253906 -4.04882812 10.25195312 C-4.03705403 8.16793845 -4.0191189 6.08396023 -4 4 C-3.34 4 -2.68 4 -2 4 C-1.34 2.68 -0.68 1.36 0 0 Z " fill="#354691" transform="translate(190,219)"/>
<path d="M0 0 C0.66 0 1.32 0 2 0 C2.33 1.32 2.66 2.64 3 4 C3.66 3.67 4.32 3.34 5 3 C5.26554687 3.78246094 5.53109375 4.56492188 5.8046875 5.37109375 C6.15789062 6.38300781 6.51109375 7.39492187 6.875 8.4375 C7.22304687 9.44683594 7.57109375 10.45617187 7.9296875 11.49609375 C8.74055093 14.13971751 8.74055093 14.13971751 11 15 C11 15.99 11 16.98 11 18 C11.99 18.33 12.98 18.66 14 19 C16 22 16 22 15.625 24.6875 C15.41875 25.450625 15.2125 26.21375 15 27 C13.2925002 25.71937515 11.62626404 24.38232443 10 23 C10 22.34 10 21.68 10 21 C9.34 21 8.68 21 8 21 C7.34 21.66 6.68 22.32 6 23 C5.938125 21.72125 5.87625 20.4425 5.8125 19.125 C5.29801489 14.19062004 3.48971305 10.53856036 1.05859375 6.26171875 C0 4 0 4 0 0 Z " fill="#143269" transform="translate(73,180)"/>
<path d="M0 0 C0.66 0.33 1.32 0.66 2 1 C1.40832031 1.44730469 0.81664063 1.89460937 0.20703125 2.35546875 C-4.14857235 5.6878963 -8.21480192 9.01558097 -12 13 C-13.18479808 14.19019579 -14.37248678 15.37751855 -15.5625 16.5625 C-16.12066406 17.12066406 -16.67882812 17.67882812 -17.25390625 18.25390625 C-18.48172078 19.48172078 -19.75216722 20.66763795 -21.05078125 21.8203125 C-23.43507507 24.48651682 -24.40320328 26.95847093 -25.625 30.3125 C-26.04394531 31.4571875 -26.46289062 32.601875 -26.89453125 33.78125 C-28.05791414 37.16862634 -29.11263296 40.53120156 -30 44 C-30.33 44 -30.66 44 -31 44 C-30.18478283 31.36413389 -25.20539836 20.54206582 -15.8125 11.9375 C-10.76668 7.65802468 -5.41027296 3.80236006 0 0 Z " fill="#2B3452" transform="translate(120,143)"/>
<path d="M0 0 C3 1.6875 3 1.6875 5 4 C5.3125 6.75 5.3125 6.75 5 9 C1 4.25 1 4.25 1 2 C-0.65 2 -2.3 2 -4 2 C-3.87625 3.1446875 -3.87625 3.1446875 -3.75 4.3125 C-4 7 -4 7 -5.75 8.875 C-8 10 -8 10 -10.125 9.8125 C-12 9 -12 9 -14 7 C-14.125 4.375 -14.125 4.375 -14 2 C-9.03312696 0.01325078 -5.2749095 -0.50237233 0 0 Z " fill="#0A0806" transform="translate(207,158)"/>
<path d="M0 0 C0.33 0 0.66 0 1 0 C1.33 1.98 1.66 3.96 2 6 C4.64 6.66 7.28 7.32 10 8 C8.85233823 12.59064709 7.52853761 13.96381647 4 17 C1.6875 17.8125 1.6875 17.8125 0 18 C-2.53466037 12.93067925 -1.12536783 5.34549719 0 0 Z " fill="#324D94" transform="translate(205,224)"/>
<path d="M0 0 C0.66 0.66 1.32 1.32 2 2 C1.64241164 9.50935551 1.64241164 9.50935551 -2 13 C-2.33926947 15.33247761 -2.67240066 17.66585471 -3 20 C-4.4375 22.1875 -4.4375 22.1875 -6 24 C-6.70151152 25.3153341 -7.36525925 26.65117592 -8 28 C-9 30 -10 32 -11 34 C-11.99 34 -12.98 34 -14 34 C-13.125 29.25 -13.125 29.25 -12 27 C-11.34 27 -10.68 27 -10 27 C-9.7525 26.21625 -9.505 25.4325 -9.25 24.625 C-8.2424736 21.70317344 -7.15889016 18.86263167 -6 16 C-4.52984213 12.36816557 -3.21333182 8.72666202 -2 5 C-1.34588315 3.32836805 -0.68346682 1.65984798 0 0 Z " fill="#172345" transform="translate(221,185)"/>
<path d="M0 0 C0.66796875 1.82421875 0.66796875 1.82421875 1 4 C-0.41719363 5.48310961 -1.84716274 6.95802012 -3.36328125 8.33984375 C-5.90052867 10.91342407 -7.33907627 13.80591591 -9 17 C-9.66 17 -10.32 17 -11 17 C-11 17.99 -11 18.98 -11 20 C-11.66 20 -12.32 20 -13 20 C-13.268125 20.53625 -13.53625 21.0725 -13.8125 21.625 C-14.67132874 23.34265748 -15.59726795 25.02730088 -16.5625 26.6875 C-18.22709967 30.52331663 -18.30520432 33.21611388 -18.1875 37.375 C-18.16042969 38.62023437 -18.13335937 39.86546875 -18.10546875 41.1484375 C-18.07066406 42.08945313 -18.03585938 43.03046875 -18 44 C-21.11607362 40.88392638 -20.99131277 37.58612325 -21.2890625 33.3046875 C-20.59356673 25.35347914 -14.42066443 19.25525477 -9.26953125 13.546875 C-7.39568554 11.26366607 -6.29395174 8.64416225 -5 6 C-3.41935802 3.90684683 -1.7359938 1.97058756 0 0 Z " fill="#97694B" transform="translate(140,130)"/>
<path d="M0 0 C2.81849004 1.10917764 5.60524248 2.26348316 8.3828125 3.47265625 C15.95394467 6.7204512 22.62710577 8.96518547 31 9 C30.2265625 10.953125 30.2265625 10.953125 29 13 C25.375 13.75 25.375 13.75 22 14 C22 13.34 22 12.68 22 12 C21.43796875 11.86980469 20.8759375 11.73960937 20.296875 11.60546875 C12.62934724 9.5842667 5.89874138 6.35500265 0 1 C0 0.67 0 0.34 0 0 Z " fill="#90604C" transform="translate(155,186)"/>
<path d="M0 0 C0 3.67846871 -1.11821535 4.86369225 -3 8 C-3.7985703 9.98209245 -4.51694601 11.98475157 -5.23828125 13.99609375 C-6.29227887 16.76891827 -7.62239893 19.37599796 -9 22 C-9.66 22 -10.32 22 -11 22 C-10.09953624 19.16997104 -9.23525495 16.45744017 -7.875 13.8125 C-6.78262547 11.88516673 -6.78262547 11.88516673 -7 9 C-6.67 8.34 -6.34 7.68 -6 7 C-6.66 6.67 -7.32 6.34 -8 6 C-6.8125 3.5625 -6.8125 3.5625 -5 1 C-2.3125 0.1875 -2.3125 0.1875 0 0 Z M-13 22 C-12.34 22.33 -11.68 22.66 -11 23 C-15.67654752 29.10549259 -15.67654752 29.10549259 -20 30 C-21.28436734 31.9837767 -21.28436734 31.9837767 -22 34 C-22.99 34 -23.98 34 -25 34 C-23.11192137 31.30274481 -21.80175356 29.86783571 -19 28 C-15.46321928 25.45954713 -15.46321928 25.45954713 -13 22 Z " fill="#B17B5F" transform="translate(209,170)"/>
<path d="M0 0 C3.91441027 1.30480342 6.53969951 2.62847711 9 6 C9.25 9.75 9.25 9.75 9 13 C7 10 7 10 6 7.875 C5.14139842 5.82955462 5.14139842 5.82955462 3 5 C3.12375 6.11375 3.12375 6.11375 3.25 7.25 C3 10 3 10 1.375 12.375 C-1 14 -1 14 -4.1875 13.875 C-5.115625 13.58625 -6.04375 13.2975 -7 13 C-7.33 12.34 -7.66 11.68 -8 11 C-7.030625 10.690625 -6.06125 10.38125 -5.0625 10.0625 C-2.15934208 9.30476658 -2.15934208 9.30476658 -1 8 C-0.76924918 6.65252916 -0.58846937 5.29622435 -0.4375 3.9375 C-0.293125 2.638125 -0.14875 1.33875 0 0 Z " fill="#251D17" transform="translate(162,144)"/>
<path d="M0 0 C1.24546405 2.49092811 0.7767578 3.41080733 0 6 C-0.66 6 -1.32 6 -2 6 C-2.11859375 6.52722656 -2.2371875 7.05445313 -2.359375 7.59765625 C-4.4104314 15.28911773 -6.69832412 22.82939415 -13 28 C-13.66 28.9075 -14.32 29.815 -15 30.75 C-17.31243196 33.35148596 -18.59332791 33.71611066 -22 34 C-22 33.34 -22 32.68 -22 32 C-20 30.66666667 -18 29.33333333 -16 28 C-14.97676564 26.68441297 -13.96873032 25.35622245 -13 24 C-12.34 24 -11.68 24 -11 24 C-10.896875 23.278125 -10.79375 22.55625 -10.6875 21.8125 C-9.92904314 18.70972195 -8.64906911 16.72730661 -7 14 C-6.49932986 12.69555132 -6.0216168 11.38214719 -5.5625 10.0625 C-4.1999955 6.24313897 -2.37578878 3.27695005 0 0 Z " fill="#A26E52" transform="translate(211,168)"/>
<path d="M0 0 C0.79921875 0.00902344 1.5984375 0.01804688 2.421875 0.02734375 C3.02515625 0.03894531 3.6284375 0.05054688 4.25 0.0625 C3.92 2.3725 3.59 4.6825 3.25 7.0625 C1.5625 7.75 1.5625 7.75 -0.75 8.0625 C-3.25 6.6875 -3.25 6.6875 -5.75 5.0625 C-7.94130534 4.36670546 -7.94130534 4.36670546 -9.75 4.0625 C-9.42 3.0725 -9.09 2.0825 -8.75 1.0625 C-5.8585914 -0.0569613 -3.07237388 -0.04518197 0 0 Z " fill="#AB7D5E" transform="translate(209.75,151.9375)"/>
<path d="M0 0 C0.78246094 -0.01417969 1.56492188 -0.02835938 2.37109375 -0.04296875 C4.5625 0.1875 4.5625 0.1875 7.5625 2.1875 C5.9125 2.1875 4.2625 2.1875 2.5625 2.1875 C2.2325 3.1775 1.9025 4.1675 1.5625 5.1875 C-0.0875 5.1875 -1.7375 5.1875 -3.4375 5.1875 C-2.4475 7.8275 -1.4575 10.4675 -0.4375 13.1875 C-5.3125 11.3125 -5.3125 11.3125 -6.4375 10.1875 C-6.15019945 7.84805264 -5.81813221 5.5135857 -5.4375 3.1875 C-6.7575 3.5175 -8.0775 3.8475 -9.4375 4.1875 C-6.32006204 0.92836031 -4.51948159 0.03710576 0 0 Z " fill="#3D322A" transform="translate(154.4375,141.8125)"/>
<path d="M0 0 C5.73842251 -0.20413361 10.60539047 -0.27141454 16 2 C16 3.65 16 5.3 16 7 C15.34 6.67 14.68 6.34 14 6 C10.91899659 5.72428521 7.83828524 5.55336467 4.75 5.37890625 C2 5 2 5 0 3 C0 2.01 0 1.02 0 0 Z " fill="#3B2D23" transform="translate(201,146)"/>
<path d="M0 0 C1.52734375 1.2265625 1.52734375 1.2265625 3 3 C3.00390625 5.0859375 3.00390625 5.0859375 2.5625 7.375 C1.97653118 11.19626474 2.08881481 13.51489759 4 17 C3.01 17 2.02 17 1 17 C0.34 14.69 -0.32 12.38 -1 10 C-1.99 10.99 -2.98 11.98 -4 13 C-4.66 12.67 -5.32 12.34 -6 12 C-5.67 8.7 -5.34 5.4 -5 2 C-4.01 3.32 -3.02 4.64 -2 6 C-1.34 4.02 -0.68 2.04 0 0 Z " fill="#0D307B" transform="translate(130,223)"/>
<path d="M0 0 C0.33 0.66 0.66 1.32 1 2 C-0.68191583 7.02822755 -2.82158181 11.8172342 -7.5625 14.5 C-8.696875 14.995 -9.83125 15.49 -11 16 C-11.70125 16.4125 -12.4025 16.825 -13.125 17.25 C-15.49427637 18.19771055 -17.47306373 18.14038535 -20 18 C-17.12451745 13.61110558 -13.97154883 11.56329967 -8.9375 10.125 C-4.61101457 8.46804813 -2.89984227 5.66470821 -0.75 1.6875 C-0.5025 1.130625 -0.255 0.57375 0 0 Z " fill="#0F357A" transform="translate(117,222)"/>
<path d="M0 0 C4.60240964 0.63922356 4.60240964 0.63922356 6.6875 2.53125 C9.95452057 4.60624955 13.01539595 4.32516499 16.75 4.1875 C17.44738281 4.17396484 18.14476562 4.16042969 18.86328125 4.14648438 C20.57585541 4.1112945 22.28802941 4.05749155 24 4 C24 3.34 24 2.68 24 2 C28.455 1.505 28.455 1.505 33 1 C31.52319163 3.95361673 29.57866672 4.07545453 26.5 5.125 C19.76388026 7.25850412 13.91693505 8.33056725 7.1875 5.75 C4.19676023 4.10802522 2.21472551 2.56908159 0 0 Z " fill="#6B493A" transform="translate(150,208)"/>
<path d="M0 0 C0.93005859 0.28037109 0.93005859 0.28037109 1.87890625 0.56640625 C1.33621094 1.03691406 0.79351562 1.50742188 0.234375 1.9921875 C-0.83876953 2.92611328 -0.83876953 2.92611328 -1.93359375 3.87890625 C-2.64128906 4.49378906 -3.34898438 5.10867187 -4.078125 5.7421875 C-4.75230469 6.34417969 -5.42648438 6.94617188 -6.12109375 7.56640625 C-6.70890625 8.06269531 -7.29671875 8.55898437 -7.90234375 9.0703125 C-9.53171308 10.7161349 -9.53171308 10.7161349 -8.80859375 14.19140625 C-8.69 14.88492188 -8.57140625 15.5784375 -8.44921875 16.29296875 C-7.90821061 20.0413823 -8.04237436 23.78787551 -8.12109375 27.56640625 C-11.37142511 21.49912105 -12.01077561 15.38730047 -11.12109375 8.56640625 C-9.76557965 5.86622215 -8.42432129 4.66024946 -6.12109375 2.56640625 C-5.44046875 1.92703125 -4.75984375 1.28765625 -4.05859375 0.62890625 C-2.12109375 -0.43359375 -2.12109375 -0.43359375 0 0 Z " fill="#233764" transform="translate(107.12109375,175.43359375)"/>
<path d="M0 0 C2.27024968 -0.08097324 4.54132075 -0.13917704 6.8125 -0.1875 C8.07707031 -0.22230469 9.34164062 -0.25710937 10.64453125 -0.29296875 C14 0 14 0 15.94921875 1.44921875 C17 3 17 3 17 4 C19.97 4.495 19.97 4.495 23 5 C23 5.33 23 5.66 23 6 C18.05 6 13.1 6 8 6 C9 4 9 4 12 3 C7.71 3 3.42 3 -1 3 C-0.67 2.01 -0.34 1.02 0 0 Z " fill="#393635" transform="translate(174,66)"/>
<path d="M0 0 C19.00455581 -0.55353075 19.00455581 -0.55353075 27 3 C26.67 3.99 26.34 4.98 26 6 C24.88625 5.525625 23.7725 5.05125 22.625 4.5625 C15.07794305 1.986049 6.89560314 2.24700377 -1 2 C-0.67 1.34 -0.34 0.68 0 0 Z " fill="#2F2C2B" transform="translate(183,72)"/>
<path d="M0 0 C1.06513937 3.36653887 0.97679383 6.13898592 0.66015625 9.640625 C0.56669922 10.71054688 0.47324219 11.78046875 0.37695312 12.8828125 C0.22129883 14.54957031 0.22129883 14.54957031 0.0625 16.25 C-0.03740234 17.37664062 -0.13730469 18.50328125 -0.24023438 19.6640625 C-0.48753932 22.44329908 -0.74101284 25.22183173 -1 28 C-3.97 28 -6.94 28 -10 28 C-10 27.67 -10 27.34 -10 27 C-7.36 27 -4.72 27 -2 27 C-2.33 26.34 -2.66 25.68 -3 25 C-3.67396288 17.27293721 -3.50169545 7.0033909 0 0 Z " fill="#C49475" transform="translate(186,154)"/>
<path d="M0 0 C1.65 0 3.3 0 5 0 C4.01 0.495 4.01 0.495 3 1 C2.7834375 2.423125 2.7834375 2.423125 2.5625 3.875 C1.96208044 7.21066423 1.70537563 8.09380536 -1 10 C-3.4453125 9.890625 -3.4453125 9.890625 -6.125 9.25 C-7.01445312 9.04890625 -7.90390625 8.8478125 -8.8203125 8.640625 C-11 8 -11 8 -12 7 C-12.04063832 5.33382885 -12.042721 3.66611905 -12 2 C-11.34 1.67 -10.68 1.34 -10 1 C-9.7525 1.804375 -9.505 2.60875 -9.25 3.4375 C-8.27046728 6.11544473 -8.27046728 6.11544473 -6.0625 6.9375 C-3.68549908 7.20896722 -3.68549908 7.20896722 -1 5 C-0.27034634 2.43717258 -0.27034634 2.43717258 0 0 Z " fill="#645845" transform="translate(203,160)"/>
<path d="M0 0 C0.66 0.33 1.32 0.66 2 1 C-3.66666667 6.66666667 -9.33333333 12.33333333 -15 18 C-15.33 17.34 -15.66 16.68 -16 16 C-15.04956626 14.66102417 -14.08940853 13.32894573 -13.125 12 C-12.32449219 10.88625 -12.32449219 10.88625 -11.5078125 9.75 C-11.01023437 9.1725 -10.51265625 8.595 -10 8 C-9.34 8 -8.68 8 -8 8 C-7.79375 7.4225 -7.5875 6.845 -7.375 6.25 C-5.50249112 3.18589456 -3.03041481 1.84460032 0 0 Z " fill="#2F3651" transform="translate(102,140)"/>
<path d="M0 0 C0.84114922 2.42998664 1.00996522 3.94305588 0.5625 6.5 C-0.1361916 10.84741441 0.07215438 15.00035654 0.2578125 19.390625 C0.17273438 20.25171875 0.08765625 21.1128125 0 22 C-0.99 22.66 -1.98 23.32 -3 24 C-3.08138426 21.12442297 -3.14067851 18.25117738 -3.1875 15.375 C-3.21263672 14.56675781 -3.23777344 13.75851563 -3.26367188 12.92578125 C-3.32589961 7.82310684 -2.75491551 4.46860312 0 0 Z " fill="#1D3A75" transform="translate(205,220)"/>
<path d="M0 0 C0 3 0 3 -0.5 5.8125 C-1.42223588 11.81352787 -1.0755502 17.94758939 -1 24 C-1.99 23.34 -2.98 22.68 -4 22 C-4.34057617 20.12060547 -4.34057617 20.12060547 -4.29296875 17.8671875 C-4.28330078 17.06152344 -4.27363281 16.25585938 -4.26367188 15.42578125 C-4.23853516 14.58402344 -4.21339844 13.74226562 -4.1875 12.875 C-4.17396484 12.02550781 -4.16042969 11.17601562 -4.14648438 10.30078125 C-4.11108219 8.20025163 -4.05727401 6.10004707 -4 4 C-3.34 4 -2.68 4 -2 4 C-1.34 2.68 -0.68 1.36 0 0 Z " fill="#395A9E" transform="translate(190,219)"/>
<path d="M0 0 C0.66 0 1.32 0 2 0 C2.5878125 1.8253125 2.5878125 1.8253125 3.1875 3.6875 C4.71088504 7.77620797 6.78483072 10.02008701 10 13 C11.440712 14.94728493 12.71041852 16.94622209 14 19 C10.6619951 17.55774399 8.56156534 15.74778144 6.0625 13.125 C3.19038726 10.17236073 0.30334629 7.47750972 -3 5 C-2.67 4.34 -2.34 3.68 -2 3 C-0.515 3.99 -0.515 3.99 1 5 C0.67 3.35 0.34 1.7 0 0 Z " fill="#78513B" transform="translate(136,189)"/>
<path d="M0 0 C3.41427917 1.39774328 4.8402322 2.82992529 6.6875 6 C7.31205078 7.051875 7.31205078 7.051875 7.94921875 8.125 C10.12943487 12.01534846 10.10349332 14.61573497 10.0625 19.125 C10.05347656 20.40632813 10.04445312 21.68765625 10.03515625 23.0078125 C10.02355469 23.99523437 10.01195312 24.98265625 10 26 C8.46484375 24.76171875 8.46484375 24.76171875 7 23 C7.06640625 21.01953125 7.06640625 21.01953125 7.5625 18.8125 C8.35717675 13.49162087 6.83194738 10.42898 4 6 C3.61714844 5.39542969 3.23429688 4.79085937 2.83984375 4.16796875 C1.92027433 2.76059907 0.96408168 1.37725954 0 0 Z " fill="#986B4C" transform="translate(211,118)"/>
<path d="M0 0 C0.98351763 3.08907651 0.96409099 5.01001837 0.125 8.125 C-0.94741818 12.42897162 -1.38330667 16.60956811 -1.65625 21.03125 C-1.7696875 21.6809375 -1.883125 22.330625 -2 23 C-2.66 23.33 -3.32 23.66 -4 24 C-5.67639252 14.63875861 -4.31817038 8.42715604 0 0 Z " fill="#3B5A9E" transform="translate(202,218)"/>
<path d="M0 0 C3 1 3 1 4 3 C4.04022391 5.3329866 4.04320247 7.66706666 4 10 C1.03 10 -1.94 10 -5 10 C-4.360625 9.278125 -3.72125 8.55625 -3.0625 7.8125 C-1.01326465 5.01808816 -0.38667054 3.38336726 0 0 Z " fill="#D3D0CE" transform="translate(165,149)"/>
<path d="M0 0 C0.33 0.99 0.66 1.98 1 3 C1.66 3.33 2.32 3.66 3 4 C2.15905619 7.15353929 1.49932382 9.46501019 -0.75 11.875 C-3.76440746 13.38220373 -5.67011618 13.48560806 -9 13 C-10.32 11.68 -11.64 10.36 -13 9 C-8.71 9 -4.42 9 0 9 C0 6.03 0 3.06 0 0 Z " fill="#293E8C" transform="translate(145,231)"/>
<path d="M0 0 C0.49628906 0.31453125 0.99257812 0.6290625 1.50390625 0.953125 C5.94399568 3.75029709 10.4262377 6.4272587 15 9 C11.35839192 10.21386936 10.66834531 9.6674695 7.3125 8.0625 C6.50425781 7.68222656 5.69601563 7.30195313 4.86328125 6.91015625 C3.94095703 6.45962891 3.94095703 6.45962891 3 6 C3 6.99 3 7.98 3 9 C2.01 9 1.02 9 0 9 C-1.125 3.375 -1.125 3.375 0 0 Z " fill="#00236B" transform="translate(146,225)"/>
<path d="M0 0 C1.45606519 4.52092968 0.27032841 7.51648796 -1 12 C0.32 12.33 1.64 12.66 3 13 C2.38125 13.061875 1.7625 13.12375 1.125 13.1875 C-1.15562439 13.81198042 -1.15562439 13.81198042 -2.1875 15.9375 C-3.14874516 19.56065485 -3.43226895 23.05808482 -3.65625 26.79296875 C-4 29 -4 29 -6 31 C-5.6319483 20.08726697 -3.4432097 10.32962909 0 0 Z " fill="#304782" transform="translate(206,207)"/>
<path d="M0 0 C0.928125 0.350625 1.85625 0.70125 2.8125 1.0625 C5.9802953 2.32382628 5.9802953 2.32382628 9 1 C11.4294516 4.6441774 11.16179575 6.71241272 11 11 C9.72689688 10.06558465 8.456612 9.12732889 7.1875 8.1875 C6.47980469 7.66542969 5.77210937 7.14335937 5.04296875 6.60546875 C3.20038793 5.15747502 1.53635131 3.76898495 0 2 C0 1.34 0 0.68 0 0 Z " fill="#032762" transform="translate(88,205)"/>
<path d="M0 0 C3 1 3 1 4.625 3 C8.09209553 5.91965939 11.58692706 5.81140714 16 6 C16.33 6.99 16.66 7.98 17 9 C8.04347826 9.7826087 8.04347826 9.7826087 4 6.75 C2.38300543 4.52663247 1.03411318 2.5382778 0 0 Z " fill="#A57758" transform="translate(151,203)"/>
<path d="M0 0 C0.66 0.66 1.32 1.32 2 2 C-0.20964647 5.75639899 -2.45035914 9.46340139 -5 13 C-5.66 13 -6.32 13 -7 13 C-7 17.95 -7 22.9 -7 28 C-7.33 28 -7.66 28 -8 28 C-8.02690104 25.20826945 -8.04679053 22.41679652 -8.0625 19.625 C-8.07087891 18.8309375 -8.07925781 18.036875 -8.08789062 17.21875 C-8.11328125 11.2265625 -8.11328125 11.2265625 -7 9 C-6.34 9 -5.68 9 -5 9 C-4.5978125 8.1646875 -4.5978125 8.1646875 -4.1875 7.3125 C-2.89877353 4.80287477 -1.47073522 2.40665764 0 0 Z " fill="#304B84" transform="translate(193,210)"/>
<path d="M0 0 C2.31 0.33 4.62 0.66 7 1 C7 1.33 7 1.66 7 2 C9.31 2.66 11.62 3.32 14 4 C13.34 5.32 12.68 6.64 12 8 C11.34 8 10.68 8 10 8 C10.33 6.68 10.66 5.36 11 4 C10.24074219 4.02320313 9.48148438 4.04640625 8.69921875 4.0703125 C7.70535156 4.08835938 6.71148437 4.10640625 5.6875 4.125 C4.20830078 4.15980469 4.20830078 4.15980469 2.69921875 4.1953125 C0 4 0 4 -3 2 C-2.01 2 -1.02 2 0 2 C0 1.34 0 0.68 0 0 Z " fill="#B18264" transform="translate(175,191)"/>
<path d="M0 0 C0.66796875 1.82421875 0.66796875 1.82421875 1 4 C-0.41719363 5.48310961 -1.84716274 6.95802012 -3.36328125 8.33984375 C-5.90052867 10.91342407 -7.33907627 13.80591591 -9 17 C-9.66 17 -10.32 17 -11 17 C-11 17.99 -11 18.98 -11 20 C-11.66 20 -12.32 20 -13 20 C-13.33 20.66 -13.66 21.32 -14 22 C-13.57212004 18.29170701 -11.66310104 16.30546918 -9.2578125 13.5703125 C-7.80048267 11.86361786 -7.80048267 11.86361786 -6.5 9 C-4.73204501 5.46409003 -2.60723286 2.95956163 0 0 Z " fill="#A27557" transform="translate(140,130)"/>
<path d="M0 0 C1.65 0.33 3.3 0.66 5 1 C4.44299928 4.23060419 3.70784878 6.0658223 1 8 C-1.6875 8.1875 -1.6875 8.1875 -4 8 C-2.66666667 5.33333333 -1.33333333 2.66666667 0 0 Z " fill="#445CA6" transform="translate(210,231)"/>
<path d="M0 0 C0.33 0.99 0.66 1.98 1 3 C-0.36328125 4.97265625 -0.36328125 4.97265625 -2.3125 7.0625 C-2.94800781 7.75472656 -3.58351563 8.44695312 -4.23828125 9.16015625 C-5.47750012 10.4543294 -6.73300601 11.73300601 -8 13 C-7.67 13.66 -7.34 14.32 -7 15 C-10.96 15 -14.92 15 -19 15 C-15 13 -15 13 -11.6875 11.875 C-6.5339479 9.72675906 -2.47129836 4.94259672 0 0 Z " fill="#2C53A3" transform="translate(106,226)"/>
<path d="M0 0 C0 4.54960762 -2.12127294 7.07105996 -5.1875 10.3125 C-6.0846875 11.1478125 -6.0846875 11.1478125 -7 12 C-7 9 -7 9 -6 7 C-6.66 6.67 -7.32 6.34 -8 6 C-6.8125 3.5625 -6.8125 3.5625 -5 1 C-2.3125 0.1875 -2.3125 0.1875 0 0 Z " fill="#BB8769" transform="translate(209,170)"/>
<path d="M0 0 C1.32 0.66 2.64 1.32 4 2 C4.125 4.375 4.125 4.375 4 7 C2 9 2 9 -0.625 9.125 C-1.40875 9.08375 -2.1925 9.0425 -3 9 C-2.01 6.03 -1.02 3.06 0 0 Z " fill="#D3D2D1" transform="translate(206,161)"/>
<path d="M0 0 C2.78948656 4.18422984 3.12654452 7.23434219 3.09765625 12.203125 C3.09443359 13.1828125 3.09121094 14.1625 3.08789062 15.171875 C3.07951172 16.18765625 3.07113281 17.2034375 3.0625 18.25 C3.05798828 19.28125 3.05347656 20.3125 3.04882812 21.375 C3.03706088 23.91672573 3.02062011 26.45833319 3 29 C2.67 29 2.34 29 2 29 C1.93941406 27.72382813 1.87882812 26.44765625 1.81640625 25.1328125 C1.73200432 23.46352984 1.64735614 21.79425963 1.5625 20.125 C1.52318359 19.28324219 1.48386719 18.44148438 1.44335938 17.57421875 C1.40146484 16.76855469 1.35957031 15.96289062 1.31640625 15.1328125 C1.26141968 14.01737061 1.26141968 14.01737061 1.20532227 12.87939453 C1.10044135 10.91135688 1.10044135 10.91135688 0 9 C-0.06950541 7.45976004 -0.08452357 5.91665012 -0.0625 4.375 C-0.05347656 3.55773437 -0.04445313 2.74046875 -0.03515625 1.8984375 C-0.02355469 1.27195313 -0.01195313 0.64546875 0 0 Z " fill="#1B3469" transform="translate(117,188)"/>
<path d="M0 0 C0.66 0.33 1.32 0.66 2 1 C0.68 1.99 -0.64 2.98 -2 4 C-1.34 2.68 -0.68 1.36 0 0 Z M-6 6 C-5.34 6.33 -4.68 6.66 -4 7 C-8.29 11.29 -12.58 15.58 -17 20 C-17.33 19.34 -17.66 18.68 -18 18 C-14 14 -10 10 -6 6 Z " fill="#1C2542" transform="translate(114,149)"/>
<path d="M0 0 C0.66 0.99 1.32 1.98 2 3 C0.37660195 4.70884005 -1.29319053 6.37446717 -3 8 C-3.66 8 -4.32 8 -5 8 C-5 8.66 -5 9.32 -5 10 C-5.78375 9.979375 -6.5675 9.95875 -7.375 9.9375 C-9.98114961 9.81315937 -9.98114961 9.81315937 -12 11 C-11.67 9.68 -11.34 8.36 -11 7 C-9.1128125 6.6596875 -9.1128125 6.6596875 -7.1875 6.3125 C-3.82648432 5.49752806 -3.19641677 5.257797 -1 2.375 C-0.67 1.59125 -0.34 0.8075 0 0 Z " fill="#636DB4" transform="translate(75,210)"/>
<path d="M0 0 C0.83346493 2.33370181 1.18643419 3.53391452 0.25 5.875 C-0.1625 6.57625 -0.575 7.2775 -1 8 C-1.53625 9.0725 -2.0725 10.145 -2.625 11.25 C-3.07875 12.1575 -3.5325 13.065 -4 14 C-4.99 14 -5.98 14 -7 14 C-6.125 9.25 -6.125 9.25 -5 7 C-4.34 7 -3.68 7 -3 7 C-2.690625 6.030625 -2.38125 5.06125 -2.0625 4.0625 C-1 1 -1 1 0 0 Z " fill="#0A1F4D" transform="translate(214,205)"/>
<path d="M0 0 C0.66 0 1.32 0 2 0 C2.33 1.32 2.66 2.64 3 4 C3.66 3.67 4.32 3.34 5 3 C5.99 6.63 6.98 10.26 8 14 C3.46534653 11.73267327 3.46534653 11.73267327 1.75 8.125 C1.41484375 7.44695312 1.0796875 6.76890625 0.734375 6.0703125 C0 4 0 4 0 0 Z " fill="#23305E" transform="translate(73,180)"/>
<path d="M0 0 C0.66 1.32 1.32 2.64 2 4 C0.375 6.0625 0.375 6.0625 -2 8 C-5.1875 7.875 -5.1875 7.875 -8 7 C-8.33 6.34 -8.66 5.68 -9 5 C-8.071875 4.731875 -7.14375 4.46375 -6.1875 4.1875 C-3.23759634 3.08851629 -1.94384814 2.37581439 0 0 Z " fill="#49433E" transform="translate(163,150)"/>
<path d="M0 0 C1.98 0.66 3.96 1.32 6 2 C6.79953138 5.28696233 7.09658936 6.71023192 6 10 C6.66 10.33 7.32 10.66 8 11 C7.34 11.66 6.68 12.32 6 13 C5.01 13 4.02 13 3 13 C3.29296875 11.01432292 3.5859375 9.02864583 3.87890625 7.04296875 C4.13904799 4.7974658 4.13904799 4.7974658 3 2 C2.01 1.67 1.02 1.34 0 1 C0 0.67 0 0.34 0 0 Z " fill="#A57D63" transform="translate(166,145)"/>
<path d="M0 0 C0.66 0.99 1.32 1.98 2 3 C1.51483526 5.00534758 1.02326392 7.01045193 0.44921875 8.9921875 C-0.12434528 11.55576935 0.22242744 13.51176781 1 16 C0.34 16.33 -0.32 16.66 -1 17 C-1.33 17.66 -1.66 18.32 -2 19 C-2.05451714 16.95863605 -2.09302485 14.91684144 -2.125 12.875 C-2.14820313 11.73804688 -2.17140625 10.60109375 -2.1953125 9.4296875 C-1.99672109 5.94242233 -1.2524801 3.2446138 0 0 Z " fill="#202F59" transform="translate(210,195)"/>
<path d="M0 0 C2.37590142 3.70416126 2.20500286 6.92984573 2.125 11.25 C2.10695313 12.51328125 2.08890625 13.7765625 2.0703125 15.078125 C2.03550781 16.52445313 2.03550781 16.52445313 2 18 C1.01 17.67 0.02 17.34 -1 17 C-1.02709444 14.91673869 -1.04643873 12.83337559 -1.0625 10.75 C-1.07410156 9.58984375 -1.08570312 8.4296875 -1.09765625 7.234375 C-1.01782092 4.59022872 -0.78643778 2.50173909 0 0 Z " fill="#58496E" transform="translate(70,139)"/>
<path d="M0 0 C3.5 0.25 3.5 0.25 5.5 2.25 C4.51 2.91 3.52 3.57 2.5 4.25 C3.49 4.91 4.48 5.57 5.5 6.25 C3.19 6.58 0.88 6.91 -1.5 7.25 C-1.17 5.6 -0.84 3.95 -0.5 2.25 C-2.15 2.25 -3.8 2.25 -5.5 2.25 C-3.5 0.25 -3.5 0.25 0 0 Z " fill="#51444C" transform="translate(140.5,61.75)"/>
<path d="M0 0 C0.66 0 1.32 0 2 0 C1.4375 1.9375 1.4375 1.9375 0 4 C-3.625 4.75 -3.625 4.75 -7 5 C-7 4.34 -7 3.68 -7 3 C-8.32 2.67 -9.64 2.34 -11 2 C-11 1.67 -11 1.34 -11 1 C-7.37 1.33 -3.74 1.66 0 2 C0 1.34 0 0.68 0 0 Z " fill="#A06B52" transform="translate(184,195)"/>
<path d="M0 0 C0.99 0.495 0.99 0.495 2 1 C2 2.32 2 3.64 2 5 C4.31 4.34 6.62 3.68 9 3 C8.67 4.32 8.34 5.64 8 7 C5.66705225 7.04241723 3.33297433 7.04092937 1 7 C0 6 0 6 -0.0625 2.9375 C-0.041875 1.968125 -0.02125 0.99875 0 0 Z " fill="#C3BEB9" transform="translate(174,183)"/>
<path d="M0 0 C0 3.23915725 -0.67712917 4.92366902 -1.9375 7.875 C-3.37684087 11.24893882 -4.38366486 14.37984201 -5 18 C-5.33 18 -5.66 18 -6 18 C-5.5854252 11.82426504 -4.53168407 6.67097231 -2 1 C-1.34 0.67 -0.68 0.34 0 0 Z " fill="#202F59" transform="translate(95,169)"/>
<path d="M0 0 C7.42857143 -0.28571429 7.42857143 -0.28571429 11 2 C10 3 10 3 7.49609375 3.09765625 C5.98208984 3.08025391 5.98208984 3.08025391 4.4375 3.0625 C3.42558594 3.05347656 2.41367188 3.04445312 1.37109375 3.03515625 C0.58863281 3.02355469 -0.19382813 3.01195312 -1 3 C-0.67 2.01 -0.34 1.02 0 0 Z " fill="#2E2B28" transform="translate(176,58)"/>
<path d="M0 0 C0.33 0.99 0.66 1.98 1 3 C-2.12696258 7.64306565 -4.37137341 9.77638552 -10 11 C-10.99 11 -11.98 11 -13 11 C-8.44 7.2 -8.44 7.2 -5.9375 6.0625 C-3.23739046 4.58179477 -1.80632822 2.45144545 0 0 Z " fill="#1C458D" transform="translate(114,224)"/>
<path d="M0 0 C1.4370809 -0.05422947 2.87475462 -0.09289723 4.3125 -0.125 C5.11300781 -0.14820313 5.91351563 -0.17140625 6.73828125 -0.1953125 C9 0 9 0 12 2 C10.35 2 8.7 2 7 2 C6.67 2.99 6.34 3.98 6 5 C5.01 5 4.02 5 3 5 C3 3.68 3 2.36 3 1 C2.01 0.67 1.02 0.34 0 0 Z " fill="#756B65" transform="translate(150,142)"/>
<path d="M0 0 C3.96 1.98 7.92 3.96 12 6 C11.67 6.66 11.34 7.32 11 8 C6.51400257 6.74809374 3.40652872 5.20614467 0 2 C0 1.34 0 0.68 0 0 Z " fill="#B9856F" transform="translate(159,190)"/>
<path d="M0 0 C2.97 0.33 5.94 0.66 9 1 C8.67 1.99 8.34 2.98 8 4 C3.05 4 -1.9 4 -7 4 C-7 3.67 -7 3.34 -7 3 C-3.7 2.67 -0.4 2.34 3 2 C2.01 1.34 1.02 0.68 0 0 Z " fill="#40383B" transform="translate(183,58)"/>
<path d="M0 0 C0.66 0 1.32 0 2 0 C1.7242265 6.2049038 0.89359206 10.10160999 -3 15 C-4.28497537 11.14507389 -3.4052209 9.59653164 -2.0625 5.8125 C-1.68222656 4.72582031 -1.30195313 3.63914063 -0.91015625 2.51953125 C-0.60980469 1.68808594 -0.30945313 0.85664063 0 0 Z " fill="#1C161A" transform="translate(220,146)"/>
<path d="M0 0 C0.33 0.99 0.66 1.98 1 3 C1.99 3 2.98 3 4 3 C3.44855089 7.08072342 3.08669204 7.91330796 0 11 C0 7.37 0 3.74 0 0 Z " fill="#5F6BBD" transform="translate(238,139)"/>
<path d="M0 0 C5.69835889 0.46517215 9.21274402 1.84041105 14 5 C14.33 5.66 14.66 6.32 15 7 C9.14549614 5.50767549 4.97642704 3.31761803 0 0 Z " fill="#734D33" transform="translate(168,98)"/>
<path d="M0 0 C0.99 0.495 0.99 0.495 2 1 C2.75 3.9375 2.75 3.9375 3 7 C2.34 7.66 1.68 8.32 1 9 C0.67 6.03 0.34 3.06 0 0 Z M-1 9 C-0.34 9.33 0.32 9.66 1 10 C-0.65 11.32 -2.3 12.64 -4 14 C-2.125 10.125 -2.125 10.125 -1 9 Z " fill="#2D2B2B" transform="translate(159,81)"/>
<path d="M0 0 C2.475 0.495 2.475 0.495 5 1 C5 1.66 5 2.32 5 3 C8.63 3 12.26 3 16 3 C15.67 3.66 15.34 4.32 15 5 C8.63544353 5.50916452 4.94875005 5.18740389 0 1 C0 0.67 0 0.34 0 0 Z " fill="#6453A3" transform="translate(151,241)"/>
<path d="M0 0 C3.34072178 1.38779449 4.90199421 2.81588196 6.8125 5.875 C7.25207031 6.55304688 7.69164062 7.23109375 8.14453125 7.9296875 C9.16843185 10.40762047 8.90457722 11.52489914 8 14 C7.75765625 13.49210938 7.5153125 12.98421875 7.265625 12.4609375 C5.12201863 8.05829981 2.80799656 4.01142366 0 0 Z " fill="#A17354" transform="translate(211,118)"/>
<path d="M0 0 C0 3.46204548 -0.3523426 3.78396059 -2.6875 6.125 C-5.32373536 8.65478405 -7.25371988 9.77963058 -11 10 C-7.50640535 6.40365256 -3.88901869 3.16548033 0 0 Z " fill="#353741" transform="translate(102,116)"/>
<path d="M0 0 C2.64 0.33 5.28 0.66 8 1 C7.67 1.66 7.34 2.32 7 3 C6.34 3 5.68 3 5 3 C4.67 3.99 4.34 4.98 4 6 C2 4.6875 2 4.6875 0 3 C0 2.01 0 1.02 0 0 Z " fill="#4560AA" transform="translate(64,219)"/>
<path d="M0 0 C2.37948772 0.17625835 3.70225849 0.69719773 5.37890625 2.40234375 C6.62115486 3.90649092 7.81376056 5.45129851 9 7 C6 7 6 7 4 6 C4 5.34 4 4.68 4 4 C3.34 4 2.68 4 2 4 C1.34 2.68 0.68 1.36 0 0 Z " fill="#3E3238" transform="translate(215,73)"/>
<path d="M0 0 C0.66 0 1.32 0 2 0 C1.34 3.63 0.68 7.26 0 11 C-0.66 11 -1.32 11 -2 11 C-1.125 3.375 -1.125 3.375 0 0 Z " fill="#23396B" transform="translate(207,208)"/>
<path d="M0 0 C-0.99 0.33 -1.98 0.66 -3 1 C-3 1.66 -3 2.32 -3 3 C-5.31 3.66 -7.62 4.32 -10 5 C-10 4.01 -10 3.02 -10 2 C-3.375 -1.125 -3.375 -1.125 0 0 Z " fill="#7A523A" transform="translate(192,204)"/>
<path d="M0 0 C1.29608947 0.93137592 2.58671632 1.8703566 3.875 2.8125 C4.59429687 3.33457031 5.31359375 3.85664063 6.0546875 4.39453125 C8 6 8 6 10 9 C7.33289346 8.84759391 5.5494129 8.50635081 3.5546875 6.66796875 C0 2.49375 0 2.49375 0 0 Z " fill="#926547" transform="translate(144,199)"/>
<path d="M0 0 C0.33 0 0.66 0 1 0 C1.33 1.65 1.66 3.3 2 5 C4.97 5.495 4.97 5.495 8 6 C8 6.33 8 6.66 8 7 C6.02 7 4.04 7 2 7 C2 7.66 2 8.32 2 9 C0.02 9 -1.96 9 -4 9 C-2.68 8.67 -1.36 8.34 0 8 C0 5.36 0 2.72 0 0 Z " fill="#C19E89" transform="translate(173,184)"/>
<path d="M0 0 C0.33 0.66 0.66 1.32 1 2 C-1 4 -1 4 -4.625 4.125 C-5.73875 4.08375 -6.8525 4.0425 -8 4 C-8 3.01 -8 2.02 -8 1 C-5.36 0.67 -2.72 0.34 0 0 Z " fill="#82573A" transform="translate(185,183)"/>
<path d="M0 0 C0.99 0 1.98 0 3 0 C3 3.3 3 6.6 3 10 C2.01 10.495 2.01 10.495 1 11 C0.67 7.37 0.34 3.74 0 0 Z " fill="#242D4F" transform="translate(71,159)"/>
<path d="M0 0 C0 0.66 0 1.32 0 2 C-1.36125 2.4021875 -1.36125 2.4021875 -2.75 2.8125 C-5.71471963 3.89576294 -7.6169754 4.98359457 -10 7 C-8.07091409 1.3611335 -6.01450566 -0.32510841 0 0 Z " fill="#1D1715" transform="translate(164,95)"/>
<path d="M0 0 C1.5625 1.0625 1.5625 1.0625 3 3 C2.6875 6.6875 2.6875 6.6875 2 10 C1.67 9.34 1.34 8.68 1 8 C0.34 8 -0.32 8 -1 8 C-0.67 5.36 -0.34 2.72 0 0 Z " fill="#00256B" transform="translate(130,223)"/>
<path d="M0 0 C1 3 1 3 -0.0625 5.5625 C-2.44133938 8.55523341 -4.34410148 9.10633592 -8 10 C-7.59007812 9.52949219 -7.18015625 9.05898437 -6.7578125 8.57421875 C-6.21898437 7.95160156 -5.68015625 7.32898438 -5.125 6.6875 C-4.59132812 6.07261719 -4.05765625 5.45773438 -3.5078125 4.82421875 C-1.8359553 2.86501788 -1.8359553 2.86501788 0 0 Z " fill="#2A293D" transform="translate(203,192)"/>
<path d="M0 0 C0.33 0 0.66 0 1 0 C1.05399736 1.45792884 1.09279177 2.91642712 1.125 4.375 C1.14820313 5.18710938 1.17140625 5.99921875 1.1953125 6.8359375 C1 9 1 9 -1 11 C-1.99 10.67 -2.98 10.34 -4 10 C-3.525625 9.0925 -3.05125 8.185 -2.5625 7.25 C-1.35371179 4.73572051 -0.52006114 2.70431791 0 0 Z " fill="#162C60" transform="translate(237,142)"/>
<path d="M0 0 C2.125 0.375 2.125 0.375 4 1 C2.37660195 2.70884005 0.70680947 4.37446717 -1 6 C-1.66 6 -2.32 6 -3 6 C-2.42655063 3.13275314 -2.1385485 2.1385485 0 0 Z " fill="#393635" transform="translate(137,66)"/>
<path d="M0 0 C-1.51934706 3.03869411 -3.98004772 3.64410306 -7 5 C-7.66 5 -8.32 5 -9 5 C-8.6875 3.0625 -8.6875 3.0625 -8 1 C-5.07175348 0.02391783 -3.04386724 -0.08226668 0 0 Z " fill="#3C3938" transform="translate(169,61)"/>
<path d="M0 0 C3 1.8125 3 1.8125 6 4 C6 4.99 6 5.98 6 7 C5.01 7.33 4.02 7.66 3 8 C3 7.34 3 6.68 3 6 C2.34 6 1.68 6 1 6 C0.67 4.02 0.34 2.04 0 0 Z " fill="#122C5C" transform="translate(78,191)"/>
<path d="M0 0 C2.91517292 1.07401108 4.77810176 1.77810176 7 4 C7.125 6.625 7.125 6.625 7 9 C3 4.25 3 4.25 3 2 C1.35 2 -0.3 2 -2 2 C-1.34 1.34 -0.68 0.68 0 0 Z " fill="#2A1F18" transform="translate(205,158)"/>
<path d="M0 0 C1.65 0 3.3 0 5 0 C4.67 2.31 4.34 4.62 4 7 C3.34 6.34 2.68 5.68 2 5 C2 4.01 2 3.02 2 2 C1.34 2 0.68 2 0 2 C0 1.34 0 0.68 0 0 Z " fill="#A37455" transform="translate(209,152)"/>
<path d="M0 0 C2.86724686 0.57344937 3.8614515 0.8614515 6 3 C6 3.66 6 4.32 6 5 C3.36 4.34 0.72 3.68 -2 3 C-1.34 2.01 -0.68 1.02 0 0 Z " fill="#2A2625" transform="translate(144,64)"/>
<path d="M0 0 C2.97 0.33 5.94 0.66 9 1 C7 3 7 3 3.875 3.125 C2.451875 3.063125 2.451875 3.063125 1 3 C0.67 2.01 0.34 1.02 0 0 Z " fill="#123D84" transform="translate(195,248)"/>
<path d="M0 0 C0.66 0.33 1.32 0.66 2 1 C1.21625 1.433125 0.4325 1.86625 -0.375 2.3125 C-3.21698375 3.89220247 -3.21698375 3.89220247 -5 7 C-5.66 7 -6.32 7 -7 7 C-6.875 5.1875 -6.875 5.1875 -6 3 C-3.0625 1.1875 -3.0625 1.1875 0 0 Z " fill="#B97AC4" transform="translate(213,217)"/>
<path d="M0 0 C1.98 0 3.96 0 6 0 C6.33 0.99 6.66 1.98 7 3 C5.02 3 3.04 3 1 3 C0.67 2.01 0.34 1.02 0 0 Z " fill="#E1B499" transform="translate(177,178)"/>
<path d="M0 0 C0.66 0.66 1.32 1.32 2 2 C-0.75 5.875 -0.75 5.875 -3 7 C-3 5.02 -3 3.04 -3 1 C-2.01 0.67 -1.02 0.34 0 0 Z " fill="#815A3F" transform="translate(191,159)"/>
<path d="M0 0 C0.99 0.33 1.98 0.66 3 1 C1.68 4.3 0.36 7.6 -1 11 C-2.13757948 6.44968209 -1.4283779 4.36915594 0 0 Z " fill="#B9896A" transform="translate(188,151)"/>
<path d="M0 0 C0.33 0 0.66 0 1 0 C1.33 2.64 1.66 5.28 2 8 C1.01 8.66 0.02 9.32 -1 10 C-1.125 3.375 -1.125 3.375 0 0 Z " fill="#133F86" transform="translate(203,234)"/>
<path d="M0 0 C1.98 0.495 1.98 0.495 4 1 C2.69593116 3.01920337 1.36176581 5.01924973 0 7 C-0.33 7 -0.66 7 -1 7 C-0.67 4.69 -0.34 2.38 0 0 Z " fill="#2A4174" transform="translate(188,212)"/>
<path d="M0 0 C0.99 0.33 1.98 0.66 3 1 C3.6875 3.0625 3.6875 3.0625 4 5 C1.03 4.505 1.03 4.505 -2 4 C-1.34 2.68 -0.68 1.36 0 0 Z " fill="#C19275" transform="translate(152,181)"/>
<path d="M0 0 C0.28875 0.598125 0.5775 1.19625 0.875 1.8125 C2.04742026 4.19327792 2.04742026 4.19327792 4 7 C2.35 6.67 0.7 6.34 -1 6 C-1.042721 4.33388095 -1.04063832 2.66617115 -1 1 C-0.67 0.67 -0.34 0.34 0 0 Z " fill="#4B3D27" transform="translate(192,161)"/>
<path d="M0 0 C0.66 0 1.32 0 2 0 C2 2.64 2 5.28 2 8 C1.34 8 0.68 8 0 8 C-1.09658936 4.71023192 -0.79953138 3.28696233 0 0 Z " fill="#9C6E4F" transform="translate(186,177)"/>
<path d="M0 0 C2.31 0 4.62 0 7 0 C7 0.99 7 1.98 7 3 C4.0625 2.625 4.0625 2.625 1 2 C0.67 1.34 0.34 0.68 0 0 Z " fill="#796D65" transform="translate(154,155)"/>
</svg>
